<svg xmlns="http://www.w3.org/2000/svg" xmlns:xlink="http://www.w3.org/1999/xlink" width="500" zoomAndPan="magnify" viewBox="0 0 375 374.999991" height="500" preserveAspectRatio="xMidYMid meet" version="1.0"><defs><clipPath id="8aabc24aa8"><path d="M 135 107 L 239.960938 107 L 239.960938 268 L 135 268 Z M 135 107 " clip-rule="nonzero"/></clipPath></defs><g clip-path="url(#8aabc24aa8)"><path fill="#000000" d="M 175.488281 239.8125 C 180.757812 234.367188 184.667969 228.246094 186.710938 221.171875 C 188.621094 214.398438 188.621094 207.246094 188.386719 199.757812 L 219.171875 199.757812 L 219.171875 179.195312 L 185.761719 179.195312 C 184.332031 172.179688 183.148438 165.539062 183.148438 157.316406 C 183.148438 143.289062 189.582031 131.1875 207.242188 131.1875 C 216.558594 131.1875 223.472656 133.367188 228.007812 136.027344 L 233.257812 113.519531 C 228.007812 110.367188 218.9375 107.472656 206.046875 107.472656 C 176.457031 107.472656 155.691406 126.828125 155.691406 156.589844 C 155.691406 164.332031 156.886719 172.425781 158.074219 179.195312 L 137.550781 179.195312 L 137.550781 199.757812 L 161.414062 199.757812 C 162.136719 204.351562 162.371094 208.117188 162.371094 212.710938 C 162.371094 229.886719 149.726562 244.40625 135.398438 251.175781 L 135.398438 267.382812 L 240.230469 267.382812 L 240.230469 239.8125 Z M 175.488281 239.8125 " fill-opacity="1" fill-rule="nonzero"/></g></svg>