<svg xmlns="http://www.w3.org/2000/svg" xmlns:xlink="http://www.w3.org/1999/xlink" width="500" zoomAndPan="magnify" viewBox="0 0 375 374.999991" height="500" preserveAspectRatio="xMidYMid meet" version="1.0"><defs><clipPath id="3e90890998"><path d="M 156 111 L 289.84375 111 L 289.84375 254 L 156 254 Z M 156 111 " clip-rule="nonzero"/></clipPath><clipPath id="9ab2bbbe7e"><path d="M 115 82.195312 L 195 82.195312 L 195 167 L 115 167 Z M 115 82.195312 " clip-rule="nonzero"/></clipPath><clipPath id="95ff9c9446"><path d="M 85.09375 189 L 183 189 L 183 292.945312 L 85.09375 292.945312 Z M 85.09375 189 " clip-rule="nonzero"/></clipPath></defs><path fill="#000000" d="M 160.164062 182.441406 C 160.164062 182.441406 223.476562 181.632812 223.476562 250.152344 C 223.476562 181.359375 286.789062 182.441406 286.789062 182.441406 C 286.789062 182.441406 223.476562 183.253906 223.476562 114.730469 C 223.207031 183.253906 160.164062 182.441406 160.164062 182.441406 Z M 160.164062 182.441406 " fill-opacity="1" fill-rule="nonzero"/><path fill="#000000" d="M 230.511719 149.128906 C 226.179688 140.191406 223.476562 129.085938 223.476562 114.730469 C 223.476562 181.089844 164.222656 182.441406 160.433594 182.441406 C 162.328125 182.441406 175.855469 182.710938 189.65625 189.484375 C 204.265625 185.152344 222.933594 174.589844 230.511719 149.128906 Z M 230.511719 149.128906 " fill-opacity="1" fill-rule="nonzero"/><path fill="#000000" d="M 88.460938 241.214844 C 88.460938 241.214844 133.648438 240.671875 133.648438 289.695312 C 133.648438 240.671875 178.832031 241.214844 178.832031 241.214844 C 178.832031 241.214844 133.648438 241.757812 133.648438 192.734375 C 133.648438 241.757812 88.460938 241.214844 88.460938 241.214844 Z M 88.460938 241.214844 " fill-opacity="1" fill-rule="nonzero"/><path fill="#000000" d="M 139.871094 219.546875 C 136.082031 212.773438 133.648438 204.109375 133.648438 192.734375 C 133.648438 240.128906 91.4375 241.214844 88.734375 241.214844 C 90.082031 241.214844 101.449219 241.484375 112.273438 247.714844 C 122.285156 244.195312 134.730469 236.609375 139.871094 219.546875 Z M 139.871094 219.546875 " fill-opacity="1" fill-rule="nonzero"/><path fill="#000000" d="M 118.496094 124.484375 C 118.496094 124.484375 154.480469 123.941406 154.480469 163.210938 C 154.480469 123.941406 190.46875 124.484375 190.46875 124.484375 C 190.46875 124.484375 154.480469 125.023438 154.480469 85.75 C 154.480469 124.75 118.496094 124.484375 118.496094 124.484375 Z M 118.496094 124.484375 " fill-opacity="1" fill-rule="nonzero"/><path fill="#000000" d="M 160.433594 108.5 C 156.917969 103.085938 154.75 95.5 154.75 85.75 C 154.75 123.671875 120.929688 124.484375 118.765625 124.484375 C 119.847656 124.484375 129.859375 124.75 138.789062 130.441406 C 146.636719 127.734375 156.105469 121.773438 160.433594 108.5 Z M 160.433594 108.5 " fill-opacity="1" fill-rule="nonzero"/><g clip-path="url(#3e90890998)"><path fill="#000000" d="M 226.992188 114.730469 C 226.992188 112.835938 225.367188 111.207031 223.476562 111.207031 C 221.582031 111.207031 219.957031 112.835938 219.957031 114.730469 C 219.6875 176.753906 166.386719 178.917969 160.433594 178.917969 C 159.621094 178.917969 158.808594 179.191406 158.269531 179.734375 C 157.726562 180.003906 157.457031 180.273438 157.1875 180.816406 C 156.644531 181.902344 156.644531 183.253906 157.1875 184.339844 C 157.726562 185.421875 159.082031 186.234375 160.164062 186.234375 L 160.433594 186.234375 C 166.65625 186.234375 219.6875 188.402344 219.6875 250.421875 C 219.6875 252.320312 221.3125 253.945312 223.207031 253.945312 C 225.101562 253.945312 226.722656 252.320312 226.722656 250.421875 C 226.722656 188.402344 280.023438 186.234375 285.980469 186.234375 C 287.332031 186.234375 288.414062 185.421875 289.226562 184.339844 C 289.765625 183.253906 289.765625 181.902344 288.957031 180.816406 C 288.414062 179.734375 287.058594 179.191406 285.980469 178.917969 C 280.296875 178.917969 226.992188 176.753906 226.992188 114.730469 Z M 223.207031 223.878906 C 215.359375 198.152344 196.148438 187.046875 181 182.441406 C 196.148438 177.566406 215.359375 166.460938 223.207031 141.003906 C 231.054688 166.734375 250.261719 177.839844 265.417969 182.441406 C 250.261719 187.316406 231.324219 198.421875 223.207031 223.878906 Z M 223.207031 223.878906 " fill-opacity="1" fill-rule="nonzero"/></g><g clip-path="url(#9ab2bbbe7e)"><path fill="#000000" d="M 158.269531 163.210938 C 158.269531 129.355469 187.222656 128 190.738281 128 L 191.007812 128 C 192.902344 128 194.527344 126.378906 194.527344 124.484375 C 194.527344 122.585938 192.902344 120.960938 191.007812 120.960938 C 187.761719 120.960938 158.539062 119.878906 158.539062 85.75 C 158.539062 83.855469 156.917969 82.230469 155.019531 82.230469 C 153.128906 82.230469 151.503906 83.855469 151.503906 85.75 C 151.503906 119.605469 122.554688 120.960938 119.035156 120.960938 L 118.765625 120.960938 C 116.875 121.230469 115.519531 122.585938 115.519531 124.484375 C 115.519531 126.378906 117.140625 128 119.035156 128 C 122.285156 128 151.503906 129.085938 151.503906 163.210938 C 151.503906 165.109375 153.128906 166.734375 155.019531 166.734375 C 156.644531 166.734375 158.269531 165.109375 158.269531 163.210938 Z M 135 124.484375 C 142.574219 121.230469 150.152344 115.273438 154.480469 105.25 C 158.808594 115.542969 166.65625 121.230469 173.964844 124.484375 C 166.386719 127.734375 158.808594 133.691406 154.480469 143.710938 C 150.152344 133.148438 142.304688 127.460938 135 124.484375 Z M 135 124.484375 " fill-opacity="1" fill-rule="nonzero"/></g><g clip-path="url(#95ff9c9446)"><path fill="#000000" d="M 179.644531 237.695312 L 178.832031 237.695312 C 174.503906 237.695312 137.433594 236.070312 137.433594 193.003906 C 137.433594 191.109375 135.8125 189.484375 133.917969 189.484375 C 132.023438 189.484375 130.402344 191.109375 130.402344 193.003906 C 130.402344 236.339844 93.332031 237.695312 89.003906 237.695312 L 88.191406 237.695312 C 86.570312 237.964844 85.214844 239.589844 85.214844 241.214844 C 85.214844 243.109375 86.835938 244.734375 88.734375 244.734375 C 93.0625 244.734375 130.132812 246.089844 130.132812 289.425781 C 130.132812 291.320312 131.753906 292.945312 133.648438 292.945312 C 135.542969 292.945312 137.167969 291.320312 137.167969 289.425781 C 137.167969 246.089844 174.234375 244.734375 178.5625 244.734375 C 180.457031 244.734375 182.078125 243.109375 182.078125 241.214844 C 182.347656 239.320312 181.269531 237.964844 179.644531 237.695312 Z M 133.648438 267.484375 C 127.964844 252.320312 116.601562 244.734375 106.863281 241.214844 C 116.875 237.421875 127.964844 230.109375 133.648438 214.945312 C 139.328125 230.109375 150.695312 237.695312 160.433594 241.214844 C 150.695312 244.734375 139.328125 252.320312 133.648438 267.484375 Z M 133.648438 267.484375 " fill-opacity="1" fill-rule="nonzero"/></g></svg>