<svg xmlns="http://www.w3.org/2000/svg" xmlns:xlink="http://www.w3.org/1999/xlink" width="500" zoomAndPan="magnify" viewBox="0 0 375 374.999991" height="500" preserveAspectRatio="xMidYMid meet" version="1.0"><defs><clipPath id="dbdf018296"><path d="M 81 81 L 293.890625 81 L 293.890625 293.890625 L 81 293.890625 Z M 81 81 " clip-rule="nonzero"/></clipPath></defs><g clip-path="url(#dbdf018296)"><path fill="#000000" d="M 221.160156 81.601562 C 227.113281 83.5 232.851562 85.890625 238.320312 88.714844 C 240.386719 89.785156 241.449219 92.015625 240.980469 94.292969 C 238.789062 104.9375 241.820312 116.445312 250.074219 124.707031 C 258.335938 132.960938 269.84375 135.992188 280.484375 133.796875 C 282.761719 133.332031 284.992188 134.394531 286.058594 136.457031 C 288.894531 141.929688 291.28125 147.664062 293.179688 153.617188 C 293.890625 155.835938 293.066406 158.164062 291.121094 159.449219 C 282.035156 165.421875 276.046875 175.710938 276.046875 187.386719 C 276.046875 199.070312 282.035156 209.355469 291.121094 215.328125 C 293.066406 216.605469 293.890625 218.9375 293.179688 221.160156 C 291.28125 227.113281 288.894531 232.851562 286.058594 238.320312 C 284.992188 240.386719 282.761719 241.449219 280.484375 240.980469 C 269.84375 238.789062 258.335938 241.816406 250.074219 250.078125 C 241.820312 258.335938 238.789062 269.84375 240.980469 280.488281 C 241.453125 282.769531 240.386719 284.996094 238.320312 286.066406 C 232.847656 288.894531 227.113281 291.28125 221.160156 293.179688 C 218.941406 293.890625 216.609375 293.0625 215.328125 291.117188 C 209.355469 282.039062 199.074219 276.042969 187.390625 276.042969 C 175.707031 276.042969 165.425781 282.039062 159.449219 291.117188 C 158.171875 293.0625 155.835938 293.890625 153.625 293.179688 C 147.667969 291.28125 141.929688 288.890625 136.460938 286.066406 C 134.394531 284.996094 133.328125 282.769531 133.800781 280.488281 C 135.992188 269.84375 132.960938 258.335938 124.703125 250.078125 C 116.441406 241.816406 104.9375 238.789062 94.296875 240.980469 C 92.019531 241.449219 89.789062 240.386719 88.71875 238.320312 C 85.886719 232.847656 83.496094 227.109375 81.597656 221.15625 C 80.890625 218.9375 81.710938 216.605469 83.65625 215.328125 C 92.746094 209.351562 98.734375 199.070312 98.734375 187.386719 C 98.734375 175.710938 92.746094 165.421875 83.65625 159.449219 C 81.710938 158.167969 80.890625 155.835938 81.597656 153.617188 C 83.496094 147.664062 85.886719 141.925781 88.71875 136.457031 C 89.789062 134.394531 92.019531 133.332031 94.296875 133.796875 C 104.9375 135.992188 116.445312 132.960938 124.703125 124.707031 C 132.960938 116.445312 135.992188 104.9375 133.800781 94.296875 C 133.328125 92.015625 134.394531 89.785156 136.460938 88.714844 C 141.929688 85.890625 147.667969 83.5 153.625 81.597656 C 155.835938 80.890625 158.171875 81.71875 159.449219 83.664062 C 165.425781 92.738281 175.707031 98.742188 187.390625 98.742188 C 199.074219 98.742188 209.355469 92.738281 215.328125 83.664062 C 216.609375 81.71875 218.941406 80.890625 221.160156 81.601562 Z M 205.601562 145.738281 C 214.292969 151.597656 220.011719 161.53125 220.011719 172.800781 C 220.011719 185.464844 212.789062 196.449219 202.242188 201.847656 C 201.105469 202.429688 200.4375 203.523438 200.4375 204.796875 L 200.4375 241.816406 C 196.25 242.816406 191.882812 243.347656 187.390625 243.347656 C 182.894531 243.347656 178.527344 242.820312 174.34375 241.816406 L 174.34375 204.796875 C 174.34375 203.523438 173.671875 202.433594 172.539062 201.847656 C 161.988281 196.449219 154.765625 185.46875 154.765625 172.800781 C 154.765625 161.527344 160.484375 151.59375 169.175781 145.734375 C 170.21875 145.03125 171.472656 144.964844 172.582031 145.558594 C 173.691406 146.148438 174.34375 147.226562 174.34375 148.484375 L 174.34375 176.941406 C 174.34375 178.769531 175.832031 180.257812 177.652344 180.257812 L 197.125 180.257812 C 198.953125 180.257812 200.4375 178.769531 200.4375 176.941406 L 200.4375 148.484375 C 200.4375 147.226562 201.085938 146.148438 202.195312 145.558594 C 203.304688 144.96875 204.5625 145.035156 205.601562 145.738281 Z M 187.390625 123.730469 C 222.550781 123.730469 251.050781 152.234375 251.050781 187.390625 C 251.050781 222.546875 222.550781 251.050781 187.390625 251.050781 C 152.230469 251.050781 123.730469 222.546875 123.730469 187.390625 C 123.730469 152.234375 152.230469 123.730469 187.390625 123.730469 Z M 187.390625 123.730469 " fill-opacity="1" fill-rule="evenodd"/></g></svg>