<svg xmlns="http://www.w3.org/2000/svg" xmlns:xlink="http://www.w3.org/1999/xlink" width="500" zoomAndPan="magnify" viewBox="0 0 375 374.999991" height="500" preserveAspectRatio="xMidYMid meet" version="1.0"><defs><clipPath id="888621faa9"><path d="M 100.207031 91 L 274.957031 91 L 274.957031 284.277344 L 100.207031 284.277344 Z M 100.207031 91 " clip-rule="nonzero"/></clipPath></defs><g clip-path="url(#888621faa9)"><path fill="#000000" d="M 226.910156 173 L 186.28125 212.457031 C 184.644531 214.042969 182.527344 214.839844 180.40625 214.839844 C 178.300781 214.839844 176.195312 214.054688 174.5625 212.488281 L 154.699219 193.40625 C 151.339844 190.179688 151.234375 184.847656 154.460938 181.492188 C 157.6875 178.136719 163.027344 178.03125 166.386719 181.257812 L 180.371094 194.691406 L 215.160156 160.910156 C 218.496094 157.667969 223.839844 157.746094 227.082031 161.085938 C 230.328125 164.421875 230.25 169.757812 226.910156 173 Z M 274.457031 140.402344 C 274.386719 137.820312 272.484375 135.671875 269.941406 135.207031 C 257.046875 132.855469 245.601562 128.953125 235.644531 124.375 L 235.53125 124.210938 C 228.449219 120.996094 222.164062 117.457031 216.671875 113.894531 C 211.359375 110.429688 206.753906 106.945312 202.871094 103.710938 C 198.101562 99.714844 194.191406 95.855469 191.507812 93.035156 C 189.335938 90.753906 185.699219 90.792969 183.558594 93.101562 C 181.023438 95.835938 177.292969 99.566406 172.34375 103.710938 C 168.460938 106.945312 163.859375 110.429688 158.546875 113.894531 C 153.050781 117.457031 146.769531 120.996094 139.683594 124.210938 L 139.570312 124.375 C 129.617188 128.953125 118.167969 132.855469 105.273438 135.207031 C 102.730469 135.671875 100.828125 137.820312 100.757812 140.402344 C 100.410156 153.320312 101.570312 165.296875 103.863281 176.363281 L 103.667969 176.644531 C 117.105469 242.164062 172.1875 276.25 184.957031 283.328125 C 186.609375 284.238281 188.609375 284.238281 190.261719 283.328125 C 203.027344 276.25 258.109375 242.164062 271.542969 176.644531 L 271.351562 176.363281 C 273.644531 165.296875 274.808594 153.320312 274.457031 140.402344 " fill-opacity="1" fill-rule="nonzero"/></g></svg>