<svg xmlns="http://www.w3.org/2000/svg" xmlns:xlink="http://www.w3.org/1999/xlink" width="500" zoomAndPan="magnify" viewBox="0 0 375 374.999991" height="500" preserveAspectRatio="xMidYMid meet" version="1.0"><defs><clipPath id="4c55a05689"><path d="M 122 90.386719 L 253 90.386719 L 253 180 L 122 180 Z M 122 90.386719 " clip-rule="nonzero"/></clipPath><clipPath id="17479baa80"><path d="M 180 271 L 195 271 L 195 284.636719 L 180 284.636719 Z M 180 271 " clip-rule="nonzero"/></clipPath><clipPath id="d9aa420543"><path d="M 256 263 L 269.953125 263 L 269.953125 277 L 256 277 Z M 256 263 " clip-rule="nonzero"/></clipPath></defs><g clip-path="url(#4c55a05689)"><path fill="#000000" d="M 252.152344 179.613281 L 122.96875 179.613281 C 122.96875 157.722656 140.703125 139.992188 162.5625 139.992188 L 173.644531 139.992188 L 173.644531 90.703125 L 201.476562 90.703125 L 201.476562 139.992188 L 212.558594 139.992188 C 234.421875 139.992188 252.152344 157.722656 252.152344 179.613281 Z M 252.152344 179.613281 " fill-opacity="1" fill-rule="nonzero"/></g><path fill="#000000" d="M 194.160156 195.414062 L 194.160156 195.355469 C 194.160156 191.710938 191.214844 188.789062 187.5625 188.789062 C 183.910156 188.789062 180.960938 191.773438 180.960938 195.414062 C 180.960938 199.070312 183.90625 202.019531 187.5625 202.019531 C 191.214844 202.019531 194.160156 199.070312 194.160156 195.414062 Z M 194.160156 195.414062 " fill-opacity="1" fill-rule="nonzero"/><path fill="#000000" d="M 194.160156 250.308594 L 194.160156 250.171875 C 194.160156 246.519531 191.214844 243.632812 187.5625 243.632812 C 183.910156 243.632812 180.960938 246.65625 180.960938 250.308594 C 180.960938 253.953125 183.90625 256.914062 187.5625 256.914062 C 191.214844 256.914062 194.160156 253.953125 194.160156 250.308594 Z M 194.160156 250.308594 " fill-opacity="1" fill-rule="nonzero"/><path fill="#000000" d="M 194.160156 222.875 L 194.160156 222.722656 C 194.160156 219.082031 191.214844 216.207031 187.5625 216.207031 C 183.910156 216.207031 180.960938 219.222656 180.960938 222.875 C 180.960938 226.519531 183.90625 229.476562 187.5625 229.476562 C 191.214844 229.476562 194.160156 226.519531 194.160156 222.875 Z M 194.160156 222.875 " fill-opacity="1" fill-rule="nonzero"/><g clip-path="url(#17479baa80)"><path fill="#000000" d="M 194.160156 277.671875 L 194.160156 277.605469 C 194.160156 273.953125 191.214844 271.027344 187.5625 271.027344 C 183.910156 271.027344 180.960938 274.03125 180.960938 277.671875 C 180.960938 281.328125 183.90625 284.273438 187.5625 284.273438 C 191.214844 284.273438 194.160156 281.324219 194.160156 277.671875 Z M 194.160156 277.671875 " fill-opacity="1" fill-rule="nonzero"/></g><g clip-path="url(#d9aa420543)"><path fill="#000000" d="M 265.046875 276.386719 C 268.449219 275.023438 270.074219 271.179688 268.722656 267.800781 L 268.675781 267.675781 C 267.339844 264.289062 263.511719 262.671875 260.136719 264.074219 C 256.734375 265.421875 255.136719 269.328125 256.484375 272.707031 C 257.515625 275.289062 259.984375 276.863281 262.605469 276.863281 C 263.410156 276.863281 264.253906 276.699219 265.046875 276.386719 Z M 265.046875 276.386719 " fill-opacity="1" fill-rule="nonzero"/></g><path fill="#000000" d="M 255.941406 251.457031 C 259.328125 250.109375 260.96875 246.265625 259.621094 242.886719 L 259.570312 242.75 C 258.210938 239.359375 254.378906 237.734375 251.015625 239.148438 C 247.628906 240.492188 246.019531 244.402344 247.378906 247.777344 C 248.398438 250.363281 250.878906 251.9375 253.5 251.9375 C 254.304688 251.9375 255.148438 251.785156 255.941406 251.457031 Z M 255.941406 251.457031 " fill-opacity="1" fill-rule="nonzero"/><path fill="#000000" d="M 246.285156 226.730469 C 249.769531 225.6875 251.75 222.007812 250.703125 218.515625 L 250.664062 218.390625 C 249.617188 214.898438 245.980469 212.984375 242.46875 214.027344 C 238.992188 215.074219 237.015625 218.804688 238.074219 222.308594 C 238.917969 225.167969 241.546875 227.011719 244.382812 227.011719 C 245.011719 227.011719 245.640625 226.921875 246.285156 226.730469 Z M 246.285156 226.730469 " fill-opacity="1" fill-rule="nonzero"/><path fill="#000000" d="M 237.730469 201.605469 C 241.117188 200.253906 242.757812 196.410156 241.410156 193.03125 L 241.359375 192.910156 C 240.011719 189.53125 236.183594 187.90625 232.808594 189.292969 C 229.421875 190.652344 227.808594 194.558594 229.167969 197.9375 C 230.199219 200.507812 232.667969 202.082031 235.289062 202.082031 C 236.09375 202.082031 236.9375 201.929688 237.730469 201.605469 Z M 237.730469 201.605469 " fill-opacity="1" fill-rule="nonzero"/><path fill="#000000" d="M 226.171875 280.617188 C 229.761719 279.910156 232.078125 276.433594 231.363281 272.855469 L 231.335938 272.730469 C 230.617188 269.148438 227.117188 266.871094 223.589844 267.613281 C 220 268.316406 217.695312 271.871094 218.425781 275.4375 C 219.054688 278.589844 221.800781 280.757812 224.875 280.757812 C 225.316406 280.757812 225.757812 280.71875 226.171875 280.617188 Z M 226.171875 280.617188 " fill-opacity="1" fill-rule="nonzero"/><path fill="#000000" d="M 221.460938 254.507812 C 225.089844 254.140625 227.734375 250.902344 227.367188 247.273438 L 227.355469 247.148438 C 227.003906 243.53125 223.777344 240.886719 220.152344 241.3125 C 216.511719 241.667969 213.867188 244.96875 214.246094 248.597656 C 214.585938 252 217.457031 254.546875 220.792969 254.546875 C 221.007812 254.546875 221.246094 254.535156 221.460938 254.507812 Z M 221.460938 254.507812 " fill-opacity="1" fill-rule="nonzero"/><path fill="#000000" d="M 218.023438 228.183594 C 221.601562 227.476562 223.917969 223.996094 223.203125 220.417969 L 223.175781 220.292969 C 222.46875 216.714844 218.980469 214.457031 215.429688 215.175781 C 211.851562 215.882812 209.546875 219.421875 210.265625 223.003906 C 210.894531 226.152344 213.640625 228.308594 216.714844 228.308594 C 217.15625 228.308594 217.59375 228.269531 218.023438 228.183594 Z M 218.023438 228.183594 " fill-opacity="1" fill-rule="nonzero"/><path fill="#000000" d="M 213.945312 201.957031 C 217.535156 201.25 219.851562 197.773438 219.132812 194.195312 L 219.109375 194.070312 C 218.390625 190.488281 214.851562 188.210938 211.363281 188.953125 C 207.773438 189.65625 205.46875 193.199219 206.199219 196.777344 C 206.828125 199.914062 209.574219 202.082031 212.648438 202.082031 C 213.085938 202.082031 213.53125 202.046875 213.945312 201.957031 Z M 213.945312 201.957031 " fill-opacity="1" fill-rule="nonzero"/><path fill="#000000" d="M 118.636719 272.703125 L 118.6875 272.578125 C 120.046875 269.203125 118.386719 265.421875 114.984375 264.070312 C 111.648438 262.710938 107.742188 264.410156 106.398438 267.800781 C 105.050781 271.179688 106.675781 275.023438 110.074219 276.386719 C 110.867188 276.699219 111.710938 276.863281 112.519531 276.863281 C 115.136719 276.863281 117.601562 275.289062 118.636719 272.703125 Z M 118.636719 272.703125 " fill-opacity="1" fill-rule="nonzero"/><path fill="#000000" d="M 127.742188 247.777344 L 127.792969 247.652344 C 129.152344 244.277344 127.492188 240.496094 124.101562 239.148438 C 120.753906 237.785156 116.863281 239.488281 115.503906 242.890625 C 114.152344 246.265625 115.789062 250.109375 119.179688 251.460938 C 119.972656 251.785156 120.816406 251.9375 121.621094 251.9375 C 124.238281 251.9375 126.722656 250.363281 127.742188 247.777344 Z M 127.742188 247.777344 " fill-opacity="1" fill-rule="nonzero"/><path fill="#000000" d="M 137.050781 222.308594 L 137.089844 222.171875 C 138.144531 218.679688 136.128906 215.074219 132.65625 214.027344 C 129.101562 212.921875 125.449219 215.011719 124.417969 218.515625 C 123.371094 222.007812 125.347656 225.6875 128.839844 226.730469 C 129.480469 226.921875 130.109375 227.011719 130.738281 227.011719 C 133.574219 227.011719 136.207031 225.167969 137.050781 222.308594 Z M 137.050781 222.308594 " fill-opacity="1" fill-rule="nonzero"/><path fill="#000000" d="M 145.953125 197.9375 L 146.003906 197.8125 C 147.363281 194.421875 145.703125 190.652344 142.3125 189.292969 C 138.988281 187.933594 135.074219 189.644531 133.710938 193.035156 C 132.363281 196.414062 134 200.253906 137.390625 201.605469 C 138.183594 201.933594 139.027344 202.085938 139.832031 202.085938 C 142.453125 202.082031 144.917969 200.507812 145.953125 197.9375 Z M 145.953125 197.9375 " fill-opacity="1" fill-rule="nonzero"/><path fill="#000000" d="M 156.695312 275.441406 L 156.734375 275.316406 C 157.449219 271.734375 155.121094 268.320312 151.53125 267.613281 C 147.980469 266.882812 144.492188 269.277344 143.761719 272.855469 C 143.042969 276.4375 145.359375 279.914062 148.949219 280.621094 C 149.363281 280.722656 149.804688 280.757812 150.246094 280.757812 C 153.320312 280.757812 156.0625 278.589844 156.695312 275.441406 Z M 156.695312 275.441406 " fill-opacity="1" fill-rule="nonzero"/><path fill="#000000" d="M 160.875 248.597656 L 160.886719 248.472656 C 161.261719 244.839844 158.609375 241.664062 154.96875 241.3125 C 151.355469 240.886719 148.117188 243.65625 147.753906 247.273438 C 147.386719 250.902344 150.03125 254.140625 153.660156 254.507812 C 153.871094 254.535156 154.113281 254.546875 154.328125 254.546875 C 157.664062 254.546875 160.535156 252 160.875 248.597656 Z M 160.875 248.597656 " fill-opacity="1" fill-rule="nonzero"/><path fill="#000000" d="M 164.855469 223.003906 L 164.878906 222.878906 C 165.597656 219.296875 163.269531 215.882812 159.691406 215.175781 C 156.191406 214.394531 152.636719 216.839844 151.921875 220.417969 C 151.203125 223.996094 153.519531 227.476562 157.097656 228.183594 C 157.523438 228.269531 157.964844 228.308594 158.40625 228.308594 C 161.480469 228.308594 164.226562 226.152344 164.855469 223.003906 Z M 164.855469 223.003906 " fill-opacity="1" fill-rule="nonzero"/><path fill="#000000" d="M 168.921875 196.777344 L 168.960938 196.640625 C 169.679688 193.070312 167.351562 189.65625 163.761719 188.953125 C 160.246094 188.210938 156.707031 190.628906 155.992188 194.195312 C 155.273438 197.773438 157.589844 201.25 161.179688 201.957031 C 161.597656 202.046875 162.035156 202.082031 162.476562 202.082031 C 165.546875 202.082031 168.292969 199.914062 168.921875 196.777344 Z M 168.921875 196.777344 " fill-opacity="1" fill-rule="nonzero"/></svg>