<?xml version="1.0" encoding="UTF-8"?>
<svg width="107px" height="107px" viewBox="0 0 107 107" version="1.1" xmlns="http://www.w3.org/2000/svg" xmlns:xlink="http://www.w3.org/1999/xlink">
    <!-- Generator: Sketch 48.2 (47327) - http://www.bohemiancoding.com/sketch -->
    <title>Page 1</title>
    <desc>Created with Sketch.</desc>
    <defs>
        <radialGradient cx="50%" cy="0%" fx="50%" fy="0%" r="100%" gradientTransform="translate(0.500000,0.000000),scale(1.000000,0.997783),rotate(90.000000),translate(-0.500000,-0.000000)" id="radialGradient-1">
            <stop stop-color="#E64949" offset="2.56098533%"></stop>
            <stop stop-color="#A91919" offset="100%"></stop>
        </radialGradient>
        <polygon id="path-2" points="102.114511 105.999922 102.114511 0.113090802 0.168587111 0.113090802 0.168587111 105.999922 102.114511 105.999922"></polygon>
    </defs>
    <g id="tta-tiler-profile" stroke="none" stroke-width="1" fill="none" fill-rule="evenodd" transform="translate(-1015.000000, -631.000000)" opacity="0.699999988">
        <g id="Page-1" transform="translate(1068.458235, 684.501345) rotate(30.000000) translate(-1068.458235, -684.501345) translate(1015.458235, 631.383567)">
            <path d="M32.5037693,32.2019284 C43.151116,21.803564 60.1584627,20.985244 71.788076,30.7636262 C79.8742271,37.5624662 83.3588004,47.8018307 81.9035382,57.5363996 C82.4757027,57.097324 83.0311427,56.671204 83.5832849,56.2476751 C84.5533027,46.4747107 80.8435382,36.4063596 72.759036,29.6089329 C70.8847204,28.0330662 68.877316,26.7203151 66.7818138,25.664084 C66.6670982,25.615324 66.5523827,25.5663284 66.4379027,25.5175684 C66.3919693,25.4980173 66.3507471,25.4676307 66.312116,25.4315907 C64.9423604,24.7701507 63.5365649,24.2175373 62.1069782,23.7728084 C61.7373916,23.9697329 61.3668627,24.165244 60.9880893,24.3428529 C60.6637293,24.4947862 60.6265116,24.4554484 60.3346582,24.1400396 C60.9162449,24.2462751 61.3426004,23.9181462 61.8106493,23.6865951 C61.8122982,23.6858884 61.8139471,23.6854173 61.815596,23.6847107 C51.1703693,20.4875151 39.2618582,23.2307951 31.0873738,31.4832484 C31.5679071,31.7032573 32.0364271,31.947764 32.5037693,32.2019284" id="Fill-3" fill="#E30613"></path>
            <path d="M22.6030867,49.4112876 C22.7180378,49.4341364 22.8205044,49.5304787 22.9232067,49.601852 C23.2207133,49.8079631 23.5151578,50.0154876 23.8041844,50.2190076 C24.3737578,44.5623764 26.5915133,39.0115098 30.5262333,34.331492 C31.1563444,33.5821898 31.8163711,32.8734031 32.5025444,32.2032476 C31.99398,31.9978431 31.4889489,31.7936164 30.9813267,31.5886831 C30.4270644,32.1540164 29.8897622,32.7445542 29.37154,33.3607676 C28.4750156,34.4271276 27.6647044,35.5370653 26.9368378,36.6813942 C27.1738067,36.7329809 27.4100689,36.8535853 27.62254,37.0311942 L26.7175356,37.0311942 C24.3440778,40.8749898 22.9067178,45.0970876 22.3788378,49.3938564 C22.4544511,49.3896164 22.5352467,49.3976253 22.6030867,49.4112876" id="Fill-5" fill="#E30613"></path>
            <path d="M13.5153298,53.3042907 C13.2774187,53.057664 13.0397431,52.8108018 12.8020676,52.5639396 C12.8268009,52.5384996 12.8517698,52.5130596 12.8762676,52.487384 C13.1276053,52.7210551 13.378472,52.9549618 13.6295742,53.1886329 C13.5914142,53.227264 13.5532542,53.2656596 13.5153298,53.3042907 Z M18.7936587,52.3656018 L8.56277422,52.3712551 L8.56136089,50.6370951 L6.73957422,50.6382729 L6.74310756,56.5773351 L8.56465867,56.5761573 L8.56348089,54.8083129 L18.795072,54.8033662 L18.7936587,52.3656018 Z" id="Fill-7" fill="#E30613"></path>
            <path d="M27.69674,77.3464804 L28.2889267,77.9412582 C28.4118867,78.0658671 28.4740733,78.2149738 28.4740733,78.3881071 C28.4733667,78.5617116 28.4246067,78.7350804 28.3256733,78.9075071 C28.22674,79.0804049 28.1285133,79.2302182 28.0324067,79.3560049 C27.9355933,79.4817916 27.83454,79.5962716 27.7301889,79.7008582 C27.62466,79.8054449 27.5047622,79.9079116 27.3688467,80.0068449 C27.23246,80.1057782 27.07134,80.2040049 26.8869,80.2994049 C26.7010467,80.3962182 26.5144867,80.4407382 26.3246289,80.4336716 C26.1350067,80.4266049 25.9720022,80.3538182 25.8349089,80.2160182 L25.3254022,79.7043916 L27.69674,77.3464804 Z M23.3024511,88.0105516 C24.0781356,86.4554138 25.0448556,84.5745027 26.2014333,82.3664049 C26.5027089,82.4844182 26.7980956,82.5522582 27.0890067,82.5699249 C27.38086,82.5866493 27.6387933,82.5654493 27.8628067,82.5053827 C28.0861133,82.445316 28.3150733,82.3470893 28.5475667,82.209996 C28.7793533,82.0729027 28.9751,81.9402849 29.1326867,81.809316 C29.2895667,81.6788182 29.4596378,81.5226449 29.6436067,81.3396182 C30.0669,80.9191516 30.3641711,80.4916182 30.53754,80.0593738 C30.7104378,79.6261871 30.7599044,79.1944138 30.6878244,78.7640538 C30.6152733,78.3341649 30.4539178,77.9096938 30.2032867,77.4899338 C29.9521844,77.0701738 29.6066244,76.6398138 29.1663711,76.1967338 L27.2291622,74.249396 L18.3743933,83.0572893 L20.1556644,84.8479827 L24.2336022,80.7912449 L24.5275756,81.0866316 L21.4573444,86.1557871 L23.3024511,88.0105516 Z" id="Fill-9" fill="#E30613"></path>
            <path d="M38.0338129,47.0709253 C37.8352396,47.3816231 37.7209951,47.3700809 37.305004,46.9946053 C37.5798973,47.0233431 37.7973151,47.046192 38.0338129,47.0709253 Z M39.2280796,47.8016187 C38.769924,47.8741698 38.4634662,47.6942053 38.2620662,47.2654942 C38.710564,47.236992 38.8509551,47.6569876 39.2280796,47.8016187 Z M40.3973773,35.8997031 C40.4367151,35.8676676 40.5441284,35.8601298 40.5787551,35.890752 C40.9231373,36.198152 41.3615062,36.0669476 41.7456973,36.1656453 C42.0827773,36.2520942 42.3868796,36.4744587 42.6992262,36.6482987 C42.9109907,36.766312 43.1027329,36.9238987 43.3206218,37.0275431 C43.5236707,37.1241209 43.7465062,37.1837164 43.966044,37.2381298 C44.0838218,37.2673387 44.2211507,37.2821787 44.334924,37.2508498 C45.0342884,37.0593431 45.6999684,37.1808898 46.3559907,37.4508364 C46.0212662,37.4508364 45.685364,37.4699164 45.3522884,37.446832 C44.6500973,37.3983076 43.946964,37.3464853 43.2487773,37.2583876 C42.8902618,37.2131609 42.5397551,37.0942053 42.189484,36.995272 C41.8385062,36.895632 41.4976573,36.753592 41.1424396,36.677272 C40.7768573,36.5990676 40.5947729,36.3237031 40.3844218,36.0723653 C40.355684,36.0384453 40.3648707,35.9260853 40.3973773,35.8997031 Z M47.0598307,30.0466187 C46.5286529,30.4885209 45.9795729,30.9450276 45.4307284,31.4017698 C45.8815818,30.8180631 46.3420929,30.2484898 47.0598307,30.0466187 Z M36.1427729,43.7714987 C36.1875284,43.8249698 36.2273373,43.8819742 36.2593729,43.9429831 C36.3750307,44.1648764 36.6268396,44.3252898 36.838604,44.4849964 C37.0927684,44.6769742 37.3702529,44.8385653 37.6373729,45.0135831 C37.6138173,45.0630498 37.5902618,45.1122809 37.5667062,45.1617476 C37.1462396,45.2269964 36.7363729,45.1596276 36.3747951,44.930432 C36.2951773,44.8800231 36.2181507,44.8232542 36.1427729,44.7636587 L36.1427729,50.826152 L48.5066129,42.2001076 L48.5066129,41.4147653 C48.3419596,41.3198364 48.2931996,41.1488231 48.3966084,40.9589653 C48.3148707,40.9153876 48.2522129,40.8824098 48.1631729,40.8350631 C48.2234751,40.8013787 48.2658751,40.7674587 48.2741196,40.7745253 C48.3518529,40.8402453 48.4295862,40.9062009 48.5066129,40.9728631 L48.5066129,37.4275164 L48.159404,37.5471787 C48.1398529,37.4932364 48.1200662,37.4395298 48.1002796,37.3855876 C48.2359596,37.3337653 48.3711684,37.2817076 48.5066129,37.2298853 L48.5066129,29.912352 C48.4368884,29.937792 48.3678707,29.9644098 48.3047418,29.9990364 C48.2880173,29.9721831 48.271764,29.9453298 48.2552751,29.9184764 C48.3388973,29.8626498 48.4227551,29.8070587 48.5066129,29.751232 L48.5066129,27.4416098 C45.9866396,27.8886942 43.5943373,28.6994764 41.3812929,29.8167164 C41.7946929,30.0315431 42.2325907,30.1983164 42.6971062,30.3165653 C43.031124,30.4016009 43.368204,30.4750942 43.7761862,30.5707298 C42.6744929,30.927832 41.7800884,30.539872 40.9233729,30.1092764 L37.709924,32.341872 C37.7497329,32.3717876 37.7895418,32.4019387 37.8295862,32.4318542 C37.7669284,32.4196053 37.7073329,32.4026453 37.6496218,32.3835653 L36.1427729,33.4306098 L36.1427729,43.7714987 Z" id="Fill-11" fill="#E30613"></path>
            <path d="M52.2936631,36.3620987 C51.2878409,36.2040409 50.4059209,35.8954631 49.9918142,34.8305164 C50.7514809,35.3362542 51.5113831,35.8417564 52.2936631,36.3620987 Z M58.8147831,33.1613698 C58.776152,33.1988231 58.7372853,33.2362764 58.6984187,33.2739653 C58.2539253,32.7684631 57.809432,32.2627253 57.3712987,31.7645253 C57.8869298,32.1852276 58.1491031,32.8843564 58.8147831,33.1613698 Z M59.0522231,33.3627698 C59.3454898,33.7775831 59.6382853,34.192632 59.9313164,34.6074453 C59.9006942,34.6305298 59.870072,34.6536142 59.8394498,34.6766987 C59.5494809,34.2590587 59.259512,33.8416542 58.9695431,33.4240142 C58.9971031,33.4035209 59.0246631,33.3832631 59.0522231,33.3627698 Z M49.619872,41.746192 C49.7305831,41.7765787 49.8608453,41.8173298 50.0210231,41.8665609 C50.6961253,42.0743209 51.3926631,42.2111787 52.0778942,42.386432 C52.202032,42.418232 52.3179253,42.4834809 52.4764542,42.5494364 C51.481232,42.8318676 50.5446631,42.7440053 49.619872,42.6054987 L49.619872,50.826152 L61.9841831,42.2001076 L61.9841831,39.7522142 C61.9785298,39.7234764 61.9740542,39.6928542 61.9714631,39.6575209 C61.9754676,39.6674142 61.9799431,39.6756587 61.9841831,39.6850809 L61.9841831,28.5988942 C60.7378587,28.1447431 59.4463076,27.7862276 58.1194231,27.5254676 L56.3023476,28.7880453 L56.5958498,28.7880453 C56.3454542,28.9830853 56.1725564,29.0478631 56.0130853,28.9889742 L51.3335387,32.240112 C51.3547387,32.2643742 51.3745253,32.2891076 51.3969031,32.3131342 C51.3573298,32.301592 51.3257653,32.2843964 51.290432,32.2700276 L49.619872,33.4306098 L49.619872,41.746192 Z" id="Fill-13" fill="#E30613"></path>
            <path d="M67.7023178,41.2801453 C67.6912467,41.2111276 67.6792333,41.1359853 67.6679267,41.0641409 C67.9169089,40.922572 68.3072244,41.0283364 68.3206511,41.2521142 C68.43254,41.2283231 68.5408956,41.2021764 68.6504289,41.1826253 C68.7470067,41.1654298 68.8447622,41.1553009 69.0094156,41.1326876 C68.7719756,41.4417364 68.5036778,41.3604698 68.2549311,41.3795498 C67.9918156,41.399572 67.72658,41.4426787 67.4719444,41.5121676 C67.0785667,41.6195809 66.6934333,41.7580876 66.3045311,41.8836387 C66.2856867,41.8391187 66.2666067,41.7945987 66.2477622,41.7503142 C66.7282956,41.5948476 67.2088289,41.4396164 67.7023178,41.2801453 M70.9605222,42.8298653 C71.1141044,43.1115898 71.2679222,43.3935498 71.4215044,43.6752742 C71.3908822,43.6917631 71.3604956,43.7080164 71.3301089,43.7240342 C71.1807667,43.4401898 71.0311889,43.1561098 70.8813756,42.8722653 C70.9077578,42.858132 70.9343756,42.8439987 70.9605222,42.8298653 M64.4429356,40.0960076 C64.5491711,40.1108476 64.6485756,40.1732698 64.7512778,40.2137853 C64.7482156,40.2557142 64.7453889,40.2976431 64.7427978,40.339572 C64.4900467,40.339572 64.2365889,40.3273231 63.9850156,40.3426342 C63.6606556,40.3624209 63.3191,40.3478164 63.0178244,40.4479276 C63.0079311,40.4512253 62.99898,40.4538164 62.9893222,40.4568787 L62.9893222,50.8262698 L69.6310467,46.1926564 C69.0862067,46.1354164 68.5423089,46.0722876 67.9965267,46.0329498 C67.7746333,46.016932 67.5468511,46.0800609 67.3218956,46.1069142 C67.3181267,46.0555631 67.3143578,46.0044476 67.3103533,45.9530964 C68.2391489,45.824012 69.1695933,45.7955098 70.1122867,45.8567542 L75.3531622,42.2002253 L75.3531622,39.6178298 C73.2020689,36.0538742 70.2197,33.0495987 66.6748244,30.8702387 L62.9893222,33.4307276 L62.9893222,39.9066209 C63.0661133,39.9172209 63.14738,39.9414831 63.2239356,39.9504342 C63.6305044,39.998252 64.03778,40.0392387 64.4429356,40.0960076" id="Fill-15" fill="#E30613"></path>
            <path d="M54.7292604,27.0904436 C54.1827716,27.0560524 53.6329849,27.0327324 53.0775449,27.0327324 C51.9044782,27.0327324 50.7519049,27.1180036 49.6200604,27.2685236 L49.6200604,31.3539991 L54.7292604,27.789808 L54.7292604,27.0904436 Z" id="Fill-17" fill="#E30613"></path>
            <path d="M62.9764844,28.9885738 L62.9764844,31.4887604 L65.11792,29.9896849 C64.4216178,29.6252804 63.7078844,29.2900849 62.9764844,28.9885738" id="Fill-19" fill="#E30613"></path>
            <path d="M49.3066538,83.2116724 C49.6745916,83.150428 50.0422938,83.088948 50.4102316,83.0279391 C50.4156493,83.0595036 50.4210671,83.0913036 50.4264849,83.1231036 C50.0477116,83.1209836 49.7346582,83.5011702 49.3066538,83.2116724 M76.5107293,72.9963347 C80.6110449,68.1198636 82.939276,62.3440413 83.5637338,56.4518547 C83.278476,56.7218013 82.9918049,56.9931613 82.6959471,57.2732369 C82.7680271,57.3587436 82.8224404,57.4237569 82.8763827,57.487828 C82.8606004,57.6461213 82.3386093,57.8468147 81.8448849,57.9080591 C81.0253871,62.9461213 78.8797116,67.8350769 75.3562716,72.0256102 C68.654716,79.995868 58.610156,83.4952813 49.0013738,82.2001969 C49.0060849,82.2103258 49.0100893,82.2216324 49.0152716,82.2310547 C48.9184582,82.2256369 48.7983249,82.2548458 48.7290716,82.2082058 C48.7026893,82.1905391 48.6781916,82.1691036 48.6522804,82.1504947 C46.8316716,81.882668 45.0292004,81.4419436 43.2691293,80.826908 C43.1628938,80.8271436 43.0524182,80.8042947 42.941236,80.7779124 C42.9367604,80.7543569 42.9322849,80.7308013 42.9280449,80.7072458 C39.7911516,79.5664502 36.797476,77.8664458 34.0942404,75.5935702 C29.9204316,72.0842636 26.9741027,67.657468 25.298596,62.8570813 C25.0934271,62.8695658 24.8863738,62.8825213 24.6790849,62.898068 C24.4263338,62.9166769 23.9512182,62.5633436 23.9236582,62.3068236 C23.9177693,62.2521747 24.0270671,62.128508 24.054156,62.1362813 C24.1462582,62.1633702 24.2623871,62.2168413 24.2993693,62.2936324 C24.3448316,62.3883258 24.3203338,62.5167036 24.3271649,62.6545036 C24.6018227,62.5223569 24.9087516,62.4773658 25.1744582,62.4971524 C23.9062271,58.706828 23.4261649,54.6934324 23.757356,50.720788 C23.697996,50.7090102 23.638636,50.6969969 23.579276,50.6849836 C23.5882271,50.6414058 23.5971782,50.5980636 23.6063649,50.5544858 C23.6605427,50.5669702 23.714956,50.5794547 23.7693693,50.5919391 C23.7759649,50.517268 23.7832671,50.4428324 23.7903338,50.3681613 C23.1781249,50.5203302 22.663436,50.4117391 22.3039782,50.0584058 C21.8903427,54.1542458 22.2995027,58.3023791 23.5083738,62.2415747 C23.6261516,62.1909302 23.7453427,62.1393436 23.8683027,62.0896413 C23.7783204,62.2338013 23.7163693,62.4215391 23.5945871,62.5162324 C25.2976538,67.886428 28.4922582,72.8540591 33.123516,76.7482636 C36.9555338,79.970428 41.3434627,82.0972591 45.9064093,83.1638547 C46.5412316,82.9344236 47.198196,82.7641169 47.8471516,82.5747302 C47.9392538,82.5478769 48.0459604,82.5709613 48.1741027,82.6430413 C48.0509071,82.7005169 47.9319516,82.7733036 47.8028671,82.8131124 C47.3131471,82.963868 46.8220138,83.1103836 46.3313516,83.2590191 C57.151596,85.6268236 68.887916,82.0623969 76.5107293,72.9963347" id="Fill-21" fill="#E30613"></path>
            <path d="M75.9173178,28.2554542 L77.0260778,26.9794498 C76.9113622,26.8753342 76.8020644,26.7629742 76.6988911,26.6402498 C76.4656911,26.3620587 76.2141178,26.098472 75.9929311,25.8110942 C75.8073133,25.5698853 75.6287622,25.3230231 75.4511533,25.0754542 L74.0771578,26.6567387 L75.9173178,28.2554542 Z" id="Fill-23" fill="#E30613"></path>
            <path d="M31.2813773,34.9664791 C27.1754084,39.8493102 25.0040573,45.7137013 24.6839373,51.6285013 C24.9249107,51.7931547 25.121364,52.0011502 25.3328929,52.1808791 C25.4403062,49.1525769 26.0447418,46.1308702 27.1560929,43.2460213 L27.1527951,43.2450791 C27.0840129,43.2229369 27.0371373,43.132248 26.9803684,43.0726524 C27.0519773,43.0293102 27.124764,42.9475724 27.1949596,42.9494569 C27.2203996,42.9501636 27.2458396,42.9515769 27.2715151,42.9527547 C28.337404,40.2775502 29.8418973,37.7243636 31.7967729,35.3996658 C34.0420884,32.7289369 36.6861996,30.5922124 39.5677507,28.9991502 C39.5668084,28.9984436 39.5661018,28.9975013 39.5651596,28.9967947 C39.478004,28.9148213 39.4108707,28.8118836 39.3345507,28.7186036 C39.3639951,28.6773813 39.393204,28.6361591 39.4224129,28.5949369 C39.5771729,28.6743191 39.7446529,28.7390969 39.9001196,28.8177724 C44.7118129,26.2438569 50.1618618,25.1749058 55.5214573,25.6728702 C55.161764,25.3991547 54.8687329,25.1341547 54.7629684,24.9548969 C55.2797773,24.9513636 55.5989551,25.2677147 55.941924,25.5164613 C56.0474529,25.5927813 56.1499196,25.6728702 56.2540351,25.7508391 C61.4091684,26.3687013 66.4491151,28.442768 70.7199729,32.0338124 C76.9301596,37.2553724 80.2637418,44.6284969 80.5473507,52.1441324 C80.7744262,52.4150213 80.9755907,52.7132347 81.2382351,52.9454924 C81.1687462,44.9629858 77.7421196,37.0586836 71.1533951,31.5186524 C65.7841418,27.0039947 59.2288662,24.8284036 52.723764,24.8814036 C52.4451018,25.0144924 52.1431196,25.0851591 51.7853107,25.0008302 C51.8929596,24.9652613 52.0006084,24.9292213 52.1082573,24.8934169 C47.6607329,25.0257991 43.255844,26.2007502 39.2886173,28.3838791 C39.2907373,28.3848213 39.2928573,28.3857636 39.2949773,28.3867058 C39.2897951,28.4145013 39.285084,28.4422969 39.2801373,28.4698569 C39.2488084,28.4601991 39.2174796,28.4505413 39.1866218,28.4408836 C36.2563107,30.0692791 33.5669729,32.2476969 31.2813773,34.9664791" id="Fill-25" fill="#E30613"></path>
            <path d="M74.6010569,71.3906467 C78.182208,67.1315667 80.2911369,62.1260111 80.9846124,56.9916067 C80.7733191,56.7753667 80.5721547,56.56902 80.3825324,56.3749222 C79.7823369,61.5708067 77.7040302,66.6545667 74.0856613,70.95746 C64.2669991,82.6351267 46.840128,84.1422111 35.1622258,74.3230778 C28.4307547,68.6631489 25.0797413,60.4752378 25.328488,52.3177133 C25.1155458,52.1525889 24.8988347,51.9844022 24.6757636,51.8112689 C24.2701369,60.3270733 27.7000613,68.9281489 34.7290391,74.8384733 C46.691728,84.8966956 64.5430702,83.3531 74.6010569,71.3906467" id="Fill-27" fill="#E30613"></path>
            <path d="M49.6763347,7.23464133 C48.6530813,7.31213911 47.8533702,7.65746356 47.2764947,8.27155689 C46.7007969,8.88588578 46.4499302,9.67994356 46.5234236,10.6546724 C46.5483924,10.9889258 46.6110502,11.3019791 46.7106902,11.5945391 C46.8117436,11.8868636 46.9233969,12.134668 47.0491836,12.338188 C47.1742636,12.5410013 47.3417436,12.7489969 47.5520947,12.961468 C47.7629169,13.1737036 47.9450013,13.3416547 48.0978769,13.4641436 C48.2495747,13.5871036 48.4540369,13.7399791 48.7091436,13.9215924 L49.5126236,14.5064769 C50.5229213,15.2675569 51.059988,16.0686813 51.123588,16.9096147 C51.1695213,17.5244147 50.9525747,17.8494813 50.4720413,17.8857569 C50.3109213,17.8975347 50.1681747,17.8598458 50.0430947,17.7733969 C49.9180147,17.6864769 49.8179036,17.5755302 49.7427613,17.4403213 C49.6678547,17.3048769 49.6028413,17.1282102 49.548428,16.9107924 C49.4942502,16.6929036 49.4558547,16.491268 49.4325347,16.304708 C49.4092147,16.1188547 49.389428,15.9033213 49.370348,15.6585791 L46.9417702,16.3178991 C47.0011302,16.8059702 47.1177302,17.2582369 47.2929836,17.6749347 C47.4675302,18.0913969 47.7007302,18.4656947 47.9918769,18.7973569 C48.2830236,19.1290191 48.651668,19.380828 49.0999302,19.5534902 C49.546308,19.7254458 50.048748,19.7909302 50.6046591,19.7490013 C51.4642013,19.6844591 52.1736947,19.3610413 52.7345524,18.7796902 C53.2949391,18.1983391 53.5443924,17.4864902 53.4807924,16.6453213 C53.4468724,16.1958813 53.3627791,15.781068 53.2292191,15.401588 C53.095188,15.0223436 52.9112191,14.6732502 52.6766058,14.3554858 C52.4419924,14.0372502 52.1974858,13.7545836 51.9416724,13.5072502 C51.6858591,13.2606236 51.3751613,12.9984502 51.0098147,12.7214369 C50.9101747,12.6437036 50.7417524,12.5235702 50.5057258,12.3596236 C50.2699347,12.1963836 50.0798413,12.0574058 49.9370947,11.9426902 C49.794348,11.8282102 49.6367613,11.6819302 49.4645702,11.5045569 C49.291908,11.3274191 49.1592902,11.1326147 49.0643613,10.9206147 C48.969668,10.707908 48.9133702,10.4772991 48.8949969,10.2280813 C48.8737969,9.94353022 48.9218502,9.69125022 49.0391569,9.47171244 C49.1569347,9.25264578 49.349148,9.13298356 49.6169747,9.11272578 C49.7684369,9.10141911 49.900348,9.13510356 50.0141213,9.21377911 C50.127188,9.29292578 50.2148147,9.40363689 50.2770013,9.54661911 C50.339188,9.68983689 50.3872413,9.83399689 50.4204547,9.97909911 C50.453668,10.1244369 50.4762813,10.2770769 50.4882947,10.4374902 C50.4932413,10.5041524 50.4967747,10.5898947 50.4974813,10.695188 C50.4988947,10.8002458 50.5017213,10.877508 50.5054902,10.9260324 L52.9896591,10.3901436 C52.9840058,10.3142947 52.9790591,10.2476324 52.9748191,10.1896858 L52.9748191,10.1025302 C52.9100413,9.24769911 52.5571791,8.54032578 51.9150547,7.979468 C51.2731658,7.41931689 50.5271613,7.17104133 49.6763347,7.23464133" id="Fill-29" fill="#E30613"></path>
            <path d="M33.7901382,25.2130187 L38.130956,22.674672 L37.2860182,21.2295387 L35.0487116,22.5378142 L33.1762804,19.3349653 L34.7596849,18.4094676 L33.8947249,16.9297076 L32.3113204,17.8554409 L30.6541871,15.0233564 L32.8914938,13.7148453 L32.0463204,12.2699476 L29.6497782,13.6717387 C29.6370582,13.6882276 29.6245738,13.704952 29.6123249,13.7212053 C29.6005471,13.7190853 29.5885338,13.7164942 29.5769916,13.7143742 L28.830516,14.1508587 C28.8594893,14.1800676 28.8879916,14.2099831 28.9167293,14.2398987 C28.9061293,14.2698142 28.8955293,14.2999653 28.8851649,14.3301164 C28.8107293,14.3042053 28.7358227,14.2780587 28.658796,14.2512053 L27.7057382,14.8090009 L33.7901382,25.2130187 Z" id="Fill-31" fill="#E30613"></path>
            <path d="M7.42631289,45.5918956 L6.96061956,47.9841978 L8.385024,48.2614467 C9.37223733,48.2963089 10.3596862,48.31374 11.3468996,48.3460111 C11.6432284,48.3559044 11.8997484,48.4640244 12.0856018,48.7523444 C11.9708862,48.8100556 11.7560596,48.84586 11.478104,48.8642333 L17.178784,49.9748778 C17.3474418,49.8622822 17.5146862,49.7527489 17.6842862,49.6491044 C17.7471796,49.6107089 17.8981707,49.6071756 17.9330329,49.6495756 C18.1068729,49.8618111 18.3242907,49.7918511 18.5327573,49.7715933 C18.6552462,49.7598156 18.777264,49.7475667 18.8995173,49.7355533 L19.2580329,47.8965711 L13.9794684,46.8683711 L14.3144284,45.1530556 L19.5915796,46.18102 L20.0608062,43.7759978 L8.22979289,41.4708511 L7.76127289,43.87658 L12.6115973,44.8213933 L12.2780507,46.5364733 L7.42631289,45.5918956 Z" id="Fill-33" fill="#E30613"></path>
            <path d="M7.96114178,74.2423764 C8.18963067,74.0259009 8.44308844,73.8751453 8.72481289,73.8002387 C4.44241289,64.6562076 3.11387956,54.3902253 4.87512844,44.5060787 L3.90558178,44.5060787 C2.14833733,54.5694831 3.52657289,65.0123676 7.90719956,74.3099809 C7.923924,74.2857187 7.94111956,74.2614564 7.96114178,74.2423764" id="Fill-35" fill="#E30613"></path>
            <path d="M22.0900938,19.1276764 L25.2724493,23.0131653 C25.6872627,23.1471964 26.1044316,23.384872 26.3018271,23.6727209 C26.1289293,23.6091209 26.0217516,23.5575342 25.9089204,23.5304453 C25.8191738,23.5090098 25.7287204,23.4840409 25.6385027,23.4600142 L29.727276,28.451672 L33.4681338,25.3880364 L32.4067204,24.0931876 L30.5526627,25.6122853 L23.9754804,17.5829031 L22.0900938,19.1276764 Z" id="Fill-37" fill="#E30613"></path>
            <path d="M20.6029373,23.6663844 C20.565484,23.70266 20.5282662,23.7389356 20.4905773,23.7752111 C20.1885951,23.4944289 19.8863773,23.2134111 19.5841596,22.9326289 L19.6882751,22.8205044 C19.993084,23.1024644 20.2981284,23.3844244 20.6029373,23.6663844 Z M26.9612884,30.6972467 C27.025124,30.69866 27.0880173,30.7031356 27.1492618,30.7165622 C27.328284,30.7559 27.4696173,30.7295178 27.6156618,30.6720422 L28.9668084,29.2389222 L20.1977818,20.9695089 L18.526044,22.7427711 L26.9612884,30.6972467 Z" id="Fill-39" fill="#E30613"></path>
            <path d="M14.8191533,21.1248342 C12.4002333,24.0016742 10.3662111,27.0735542 8.70625111,30.2768742 C9.03155333,30.3682698 9.34884667,30.4575453 9.64776667,30.5414031 C11.2589667,27.4629276 13.2227933,24.5092964 15.5510244,21.7401053 C25.6412822,9.739492 40.2864778,3.831052 54.8275578,4.411932 C55.2364822,4.31629644 55.6626022,4.25175422 56.0578644,4.23573644 C56.0105178,4.26682978 55.9836644,4.27554533 55.9709444,4.29391867 C55.9363178,4.34456311 55.9061667,4.40580756 55.8748378,4.46422533 C65.5182467,5.05664756 75.0662556,8.51059867 83.1585311,14.9459764 C83.3460333,14.7629498 83.5987844,14.6326876 83.8760333,14.5829853 C83.6911222,14.7396298 83.5026778,14.8988653 83.3069311,15.0644609 C83.6093844,15.3068476 83.9104244,15.552532 84.2084022,15.8031631 C88.4441622,19.3645276 91.9193133,23.4942876 94.6199578,27.9853898 L95.29082,27.2448031 C92.5586111,22.7612387 89.0646156,18.637132 84.8236733,15.071292 C63.8208333,-2.58807244 32.4789889,0.121994222 14.8191533,21.1248342" id="Fill-41" fill="#E30613"></path>
            <path d="M95.3830871,27.3966187 C95.1541271,27.6357076 94.924696,27.8740898 94.6950293,28.112472 C105.047225,45.4472409 103.870625,68.1373653 90.1455093,84.4606587 C89.5212871,85.2031298 88.8777493,85.9194542 88.2196071,86.6152853 C88.3644738,86.6828898 88.5091049,86.7507298 88.6542071,86.8183342 C88.6355982,86.8553164 88.6172249,86.8922987 88.598616,86.9292809 C88.4398516,86.8586142 88.2813227,86.787712 88.1223227,86.7172809 C86.3384604,88.5923031 84.4358782,90.2967831 82.4360116,91.8276587 C82.5516693,91.8881964 82.6680338,91.9588631 82.7829849,92.0493164 C82.5917138,92.0342409 82.3999716,92.0189298 82.2077582,92.0038542 C64.4756071,105.411205 39.2235804,105.309916 21.4881316,90.3978364 C18.1781049,87.6147476 15.3344782,84.4837431 12.9593716,81.1056409 C12.5219449,80.9416942 12.087816,80.7697387 11.6572204,80.5893031 C11.5337893,80.5374809 11.4223716,80.4576276 11.3102471,80.3794231 C13.8957049,84.3132009 17.0851271,87.9445253 20.8728604,91.129472 C37.5761049,105.174001 60.8183716,106.333641 78.5173093,95.655672 C78.3514782,95.5108053 78.1811716,95.3619342 77.9776516,95.1840898 C78.3180293,95.2154187 78.5488738,95.3129387 78.6701849,95.5638053 C83.1669404,92.8287698 87.3025893,89.327472 90.8773804,85.0759298 C104.931096,68.3618498 106.083434,45.100032 95.3830871,27.3966187" id="Fill-43" fill="#E30613"></path>
            <path d="M10.7567622,79.5187031 C10.9068111,79.7575564 11.0585089,79.9949964 11.2127978,80.2314942 C11.2170378,80.2218364 11.2215133,80.2124142 11.2259889,80.2027564 C11.5124244,80.2522231 11.8002733,80.2953298 12.08506,80.3528053 C12.2223889,80.3806009 12.3592467,80.4098098 12.49634,80.4392542 C11.1263489,78.4198364 9.92242444,76.3151476 8.88574444,74.146152 C8.85017556,74.173712 8.81837556,74.1984453 8.78092222,74.2276542 C8.76631778,74.1181209 8.75948667,74.067712 8.74629556,73.9687787 C8.49024667,74.1551031 8.23655333,74.3237609 7.99840667,74.5063164 C8.44454889,75.4424142 8.92343333,76.3655564 9.43034889,77.2766853 C9.52033111,77.3447609 9.61031333,77.4128364 9.70006,77.480912 C9.67838889,77.5155387 9.65671778,77.5506364 9.63481111,77.5852631 C9.61997111,77.5810231 9.60748667,77.5730142 9.59288222,77.5683031 C9.89038889,78.0945342 10.19826,78.6160542 10.51626,79.1328631 C10.6886867,79.2746676 10.8611133,79.4162364 11.03142,79.5561564 C10.95298,79.5653431 10.8585222,79.550032 10.7567622,79.5187031" id="Fill-45" fill="#E30613"></path>
            <path d="M68.1628289,92.27618 C67.98098,92.2170556 67.8540156,92.18078 67.73082,92.1343756 C67.4705311,92.03662 67.1772644,91.9803222 66.9605533,91.8208511 C66.6882511,91.6206289 66.4788422,91.3341933 66.2421089,91.08474 C66.2578911,91.0694289 66.2739089,91.0543533 66.2901622,91.0388067 C66.8950689,91.4385444 67.5002111,91.8385178 68.1628289,92.27618 M64.6669489,85.75718 C65.0831756,85.48794 65.3752644,85.5800422 65.8232911,86.16634 C65.4445178,86.0320733 65.0657444,85.8982778 64.6669489,85.75718 M70.0731844,88.8615667 C70.2957844,88.62766 70.4689178,88.3789133 70.5947044,88.11462 C70.6159044,88.0703356 70.6335711,88.0267578 70.6517089,87.98318 C70.6331,87.9864778 70.6135489,87.9878911 70.5956467,87.9933089 C69.8183133,88.2331044 69.03886,88.2232111 68.2603489,88.1447711 C68.1830867,88.25666 68.0773222,88.3409889 67.9425844,88.3972867 L67.2778467,88.6778333 L66.9574911,87.9184022 C66.80438,87.8364289 66.6557444,87.7233622 66.5023978,87.6416244 C66.6215889,87.6623533 66.7384244,87.6708333 66.8545533,87.6741311 L65.9785222,85.5962956 L66.7520867,85.2705222 C66.9132067,85.2019756 67.0750333,85.2005622 67.2361533,85.2660467 C67.3965667,85.3312956 67.5386067,85.4413 67.6622733,85.59818 C67.7849978,85.7538822 67.8877,85.9008689 67.96826,86.0379622 C68.0481133,86.1743489 68.11666,86.3114422 68.1746067,86.4468867 C68.2318467,86.58398 68.2813133,86.7333222 68.3230067,86.8970333 C68.3623444,87.0539133 68.3915533,87.2322289 68.41134,87.4303311 C68.5105089,87.4081889 68.6094422,87.3872244 68.7088467,87.3693222 C69.2927889,87.2640289 69.8628333,87.0765267 70.4484244,86.99102 C70.5768022,86.9724111 70.7061222,86.9571 70.8349711,86.9410822 C70.8300244,86.8390867 70.8236644,86.7363844 70.8074111,86.6285 C70.7678378,86.3616156 70.7169578,86.1310067 70.6547711,85.9359667 C70.5923489,85.7411622 70.5113178,85.5249222 70.4102644,85.2858333 C70.1784778,84.7362822 69.8946333,84.3002689 69.55826,83.9780289 C69.2209444,83.6550822 68.83958,83.4475578 68.4132244,83.3533356 C67.9866333,83.2595844 67.5329533,83.2503978 67.0503,83.3257756 C66.5678822,83.4013889 66.0383533,83.5603889 65.4631267,83.8034822 L63.0319578,84.8288556 L63.0288956,84.8154289 L57.9456067,85.9581089 L57.9578556,86.0122867 L51.8946556,86.3905889 L51.9832244,87.8121667 C51.8703933,87.5323267 51.7153978,87.2652067 51.5161178,87.0108067 C50.9705711,86.3154467 50.2603711,85.9185356 49.3819844,85.8181889 C48.3241044,85.6971133 47.4438333,85.8942733 46.73858,86.4073133 C46.0328556,86.9205889 45.6229889,87.68002 45.5082733,88.68702 C45.4694067,89.0318733 45.4717622,89.3625933 45.51746,89.6798867 C45.5629222,89.9962378 45.6286422,90.2711311 45.7169756,90.5022111 C45.8043667,90.7325844 45.9353356,90.9770911 46.1082333,91.2343178 C46.2813667,91.4915444 46.4340067,91.6971844 46.5654467,91.8517089 C46.6968867,92.0064689 46.8749667,92.2017444 47.0996867,92.4363578 L47.80282,93.1873089 C48.68474,94.1575622 49.0755267,95.0776422 48.9756511,95.9459 C48.9035711,96.5804867 48.6204333,96.8695133 48.1236467,96.8122733 C47.9582867,96.7941356 47.81978,96.72818 47.70954,96.6151133 C47.5993,96.5027533 47.5180333,96.3699 47.4683311,96.2179667 C47.4176867,96.0653267 47.3873,95.8733489 47.3731667,95.6413267 C47.3602111,95.4097756 47.3599756,95.1961267 47.37246,95.0025 C47.38518,94.8084022 47.40638,94.5850956 47.4353533,94.3321089 L44.8364689,94.5320956 C44.8009,95.0399533 44.8322289,95.5233133 44.9297489,95.9812333 C45.02562,96.4391533 45.1905089,96.8652733 45.4230022,97.2595933 C45.6538467,97.6532067 45.9819756,97.9818067 46.4029133,98.24398 C46.8255,98.5059178 47.3237,98.6701 47.89822,98.73582 C48.7848511,98.8361667 49.5699578,98.6453667 50.2533044,98.1617711 C50.9366511,97.6786467 51.3279089,97.0030733 51.4268422,96.1338733 C51.4800778,95.6703 51.4751311,95.2324022 51.4122378,94.8197089 C51.3493444,94.4077222 51.2306244,94.0169356 51.0539578,93.6473489 C50.8765844,93.2784689 50.6822511,92.9428022 50.4695444,92.6419978 C50.2568378,92.3407222 49.9925444,92.0137711 49.6731311,91.6604378 C49.5871533,91.5629178 49.43946,91.4074511 49.2309933,91.1954511 C49.0222911,90.9827444 48.85646,90.8046644 48.7335,90.6597978 C48.6103044,90.5163444 48.4776867,90.3370867 48.33706,90.1227311 C48.1954911,89.9086111 48.0986778,89.6845978 48.0430867,89.4499844 C47.9884378,89.2163133 47.9759533,88.9703933 48.0049267,88.7131667 C48.0388467,88.4191933 48.1361311,88.17186 48.2989,87.9711667 C48.4611978,87.77118 48.6802644,87.68638 48.9558644,87.7172378 C49.1122733,87.73514 49.2415933,87.7956778 49.3412333,87.8976733 C49.4408733,87.9994333 49.5087133,88.12946 49.5445178,88.2875178 C49.5798511,88.4451044 49.6003444,88.6005711 49.6062333,88.7555667 C49.6123578,88.90962 49.6055267,89.0700333 49.5864467,89.2346867 C49.5791444,89.30394 49.5650111,89.3922733 49.5461667,89.4996867 C49.5268511,89.6061578 49.5148378,89.6853044 49.5087133,89.7357133 L50.9533756,89.7006156 C50.8947222,89.69614 50.8360689,89.6914289 50.77718,89.6869533 C50.7833044,89.6436111 50.7891933,89.60074 50.7953178,89.5573978 C51.0744511,89.58378 51.3535844,89.6101622 51.6327178,89.6363089 C51.6310689,89.6523267 51.6296556,89.6683444 51.6282422,89.6843622 L52.1405756,89.6718778 C52.1504689,89.5941444 52.1584778,89.5248911 52.1648378,89.4655311 L52.1822689,89.3764911 C52.2265533,88.9885311 52.2044111,88.6194156 52.1236156,88.26726 L53.8401089,88.1603178 L54.3123978,95.74238 C54.4311178,95.9348289 54.4749311,96.1482422 54.4068556,96.3600067 C54.3863622,96.33598 54.3668111,96.3119533 54.3465533,96.2879267 L54.4994289,98.7405311 L57.02058,98.5836511 L56.9305978,97.14158 C56.8608733,97.1206156 56.7911489,97.0998867 56.7214244,97.0789222 C56.7332022,97.0407622 56.7447444,97.0023667 56.7567578,96.9644422 C56.8121133,96.9823444 56.8677044,97.0002467 56.9228244,97.0181489 L56.4095489,88.7864244 C56.3737444,88.7868956 56.3395889,88.7909 56.3117933,88.8012644 C55.3497844,89.1553044 54.2692911,88.3016511 54.0339711,87.5141889 C54.7189667,88.1242778 55.5476511,88.4031756 56.3996556,88.6278956 L56.3605533,88.0020244 L58.1540733,87.8906067 L58.0673889,86.4996511 L58.4800822,88.3346289 C58.7300067,88.2747978 58.9801667,88.21426 59.2305622,88.1560778 C59.8001356,88.0236956 60.3687667,87.8854244 60.9397533,87.7601089 L60.7904111,87.0963133 L63.4097889,86.5078956 L63.1674022,85.4307 L64.0111622,87.4312733 C64.0351889,87.4352778 64.0585089,87.4369267 64.0825356,87.4414022 C64.0615711,87.4447 64.0403711,87.4475267 64.0194067,87.4508244 L67.7845267,96.37838 L70.1111089,95.3970556 L67.8756867,90.0965844 L68.2598778,89.9349933 L71.8120556,94.6797889 L74.2217889,93.6638378 C73.0706289,92.3619222 71.6879178,90.7615578 70.0731844,88.8615667" id="Fill-47" fill="#E30613"></path>
            <path d="M26.163556,88.909408 C25.974876,89.2373013 25.8033916,89.3018436 25.5103604,89.1282391 C25.7551027,89.0462658 25.943076,88.9829013 26.163556,88.909408 Z M32.7605249,85.6964302 L31.2023249,84.6076924 L33.148956,81.8205991 L35.3502227,83.3585413 L36.3445027,81.9364924 L32.0727027,78.9520036 L24.919116,89.189248 L29.1906804,92.1739724 L30.1833116,90.751688 L27.9829871,89.2139813 L28.0696716,89.0900791 C27.3630049,89.0453236 26.663876,88.9499236 25.9979604,88.6373413 L26.0116227,88.4971858 C26.2719116,88.5115547 26.536676,88.4997769 26.791076,88.5450036 C27.2812671,88.6319236 27.770516,88.7244969 28.2595293,88.818248 L30.1847249,86.0631902 L31.7429249,87.1521636 L32.7605249,85.6964302 Z" id="Fill-49" fill="#E30613"></path>
            <path d="M58.5655653,88.7152396 L60.6858009,98.1428796 L65.770032,97.0001996 L65.388432,95.3070262 L62.7690542,95.8963862 L61.9260009,92.1463418 L63.7802942,91.729644 L63.3899787,89.9961907 L61.536392,90.4138307 L61.0188764,88.1122173 C60.6916898,88.2045551 60.3645031,88.2961862 60.035432,88.3814573 C59.5492453,88.5074796 59.0585831,88.617484 58.5655653,88.7152396" id="Fill-51" fill="#E30613"></path>
            <path d="M43.2836631,16.5814151 L42.0837431,16.9151973 L41.4965031,12.4356373 L43.2836631,16.5814151 Z M39.880592,15.6156373 L40.2360453,21.662584 L42.5642764,21.0145707 L42.324952,18.4050862 L43.8402809,17.9836773 L45.0098142,20.3338151 L47.3246187,19.6890996 L41.5900187,8.77439733 L39.5124187,9.35268622 L39.7609298,13.5783173 C40.2169653,13.2438284 40.675592,12.9055707 41.315832,12.8848418 C40.8393031,13.2659707 40.3128364,13.5191929 39.7698809,13.7326062 L39.8758809,15.5364907 C39.9046187,15.5313084 39.933592,15.5263618 39.9618587,15.5176462 C39.9364187,15.5536862 39.9088587,15.5852507 39.880592,15.6156373 Z" id="Fill-53" fill="#E30613"></path>
            <path d="M34.1142391,93.0327844 C33.9898658,92.8963978 33.8553636,92.7673133 33.7432391,92.6212689 C33.5665724,92.3911311 33.4254747,92.1409711 33.0481147,92.2896067 C32.9823947,92.3152822 32.8139724,92.1058733 32.7063236,91.9928067 C32.597968,91.8787978 32.5171724,91.6604378 32.3454524,91.9826778 C32.2597102,91.8486467 32.193048,91.7447667 32.1266213,91.6408867 C32.5673458,91.3655222 32.6373058,91.3883711 32.8973591,91.8333356 C32.932928,91.8943444 33.043168,91.9570022 33.1084169,91.94758 C33.4681102,91.8950511 33.7248658,92.0121222 33.8723236,92.3327133 C33.9236747,92.4450733 33.9481724,92.5701533 34.0016436,92.6813356 C34.0504036,92.7821533 34.1217769,92.8716644 34.1832569,92.9663578 C34.1601724,92.9885 34.1373236,93.0106422 34.1142391,93.0327844 Z M40.5102791,87.9716378 C40.4942613,87.9999044 40.4782436,88.0281711 40.4619902,88.0566733 C40.0443502,87.8946111 39.6267102,87.7320778 39.2090702,87.5700156 C39.2262658,87.5299711 39.2434613,87.4899267 39.2606569,87.4498822 L40.5102791,87.9716378 Z M37.6049369,96.2556556 L40.2436302,90.3971533 L36.6375102,88.7732333 L35.8943324,90.4244778 L37.1964836,91.0110111 L36.7866169,91.9226111 C36.2653324,93.0820156 35.6531236,93.5046022 34.9535236,93.1887222 C34.2492124,92.8714289 34.1488658,92.1543978 34.6517769,91.0364511 L36.8657636,86.1211133 C37.3710302,84.9991622 37.9759369,84.5970689 38.6804836,84.9143622 C38.8656302,84.9977489 39.0074347,85.1101089 39.1070747,85.2514422 C39.2053013,85.3918333 39.2639547,85.5376422 39.2830347,85.6879267 C39.3009369,85.8386822 39.2903369,86.0146422 39.2500569,86.21722 C39.2097769,86.4195622 39.1600747,86.5983489 39.1037769,86.7521667 C39.047008,86.9076333 38.9744569,87.0835933 38.8840036,87.28146 L38.5257236,88.07858 L40.7274613,89.0700333 L41.0285013,88.3994067 C41.232728,87.9485533 41.3823058,87.5189 41.4805324,87.1111533 C41.5768747,86.7034067 41.6183324,86.3036689 41.6030213,85.9107622 C41.5853547,85.5178556 41.5031458,85.1560422 41.3526258,84.8246156 C41.203048,84.4931889 40.9717324,84.1822556 40.6589147,83.8911089 C40.3451547,83.6006689 39.9529547,83.3493311 39.4809013,83.1363889 C37.2402969,82.1275044 35.5153236,82.9689089 34.3036258,85.65966 L32.4969147,89.6707 C32.3322613,90.0379311 32.2029413,90.4096378 32.1087191,90.7855844 C32.0835147,90.8882867 32.0620791,90.9919311 32.0432347,91.0962822 C32.061608,91.1042911 32.0778613,91.1120644 32.0967058,91.1203089 C32.0745636,91.13138 32.0561902,91.1384467 32.0354613,91.14834 C31.9911769,91.4102778 31.9666791,91.6771622 31.9645591,91.9499356 C31.9624391,92.3501444 32.014968,92.7218511 32.120968,93.0667044 C32.2267324,93.4106156 32.4132924,93.7337978 32.6818258,94.0338956 C32.949888,94.3349356 33.2881458,94.5773222 33.6970702,94.7617622 C34.0767858,94.93254 34.4880658,95.0048556 34.9311458,94.9787089 C35.3742258,94.9523267 35.7612436,94.8317222 36.0919636,94.6147756 L36.0234169,95.5423933 L37.6049369,96.2556556 Z" id="Fill-55" fill="#E30613"></path>
            <path d="M83.4840689,84.3420564 C83.4706422,84.4219098 83.4232956,84.5201364 83.3427356,84.6357942 C83.2607622,84.7509809 83.1740778,84.8598076 83.0767933,84.9601542 C82.9816289,85.0614431 82.8466556,85.1947676 82.6735222,85.3608342 L79.6591178,82.203212 C79.3712689,82.0263098 79.0871889,81.8515276 78.8203044,81.6873453 C78.9324289,81.6409409 79.0294778,81.6275142 79.1168689,81.6352876 L76.4977267,78.891772 C76.9196067,78.4955676 77.2658733,78.2616609 77.53582,78.1895809 C77.80506,78.1172653 78.0818378,78.2298609 78.3659178,78.5278387 L81.03594,81.3245898 C81.4915044,81.6600209 81.88818,81.9521098 82.2881533,82.2465542 C82.1715533,82.2821231 82.0528333,82.285892 81.9350556,82.2663409 L83.0084822,83.3908831 C83.1392156,83.5286831 83.2426244,83.6488164 83.3187089,83.7519898 C83.3950289,83.8551631 83.4452022,83.9590431 83.4694644,84.0641009 C83.4925489,84.1696298 83.4974956,84.2622031 83.4840689,84.3420564 M76.3745311,79.8092609 C76.6988911,79.9025409 76.9773178,79.9828653 77.2557444,80.0629542 C76.9488156,80.0711987 76.6192733,80.1649498 76.3745311,79.8092609 M84.78834,85.6625809 C85.0335533,85.3469364 85.2238822,85.0470742 85.3593267,84.7629942 C85.4950067,84.4805631 85.57274,84.1986031 85.59182,83.9171142 C85.6116067,83.6368031 85.59394,83.3718031 85.5374067,83.1209364 C85.4811089,82.8714831 85.3715756,82.6057764 85.2073933,82.324052 C85.0486289,82.0503364 84.8679578,81.7879276 84.6667933,81.5363542 C84.62722,81.5540209 84.5867044,81.5686253 84.5471311,81.5731009 C83.7641444,81.6640253 82.9795089,81.7375187 82.1953444,81.8166653 L82.1581267,81.7076031 C82.8360556,81.4727542 83.5156333,81.2376698 84.2065178,80.9985809 C84.1033444,80.8841009 83.9947533,80.7667942 83.8769756,80.6435987 L81.0512511,77.6821942 C80.5367978,77.1434787 80.0703978,76.7406787 79.6527578,76.4745009 C79.2353533,76.2073809 78.7965133,76.0561542 78.3362378,76.0194076 C77.8754911,75.9819542 77.3987267,76.0957276 76.9045311,76.3586076 C76.4115133,76.6221942 75.8638467,77.0412476 75.2620022,77.6162387 L73.4833222,79.313652 L73.4713089,79.2952787 L69.1074067,82.1429098 L72.1465444,86.8007853 C72.4183756,86.7753453 72.6906778,86.750612 72.9622733,86.7244653 C73.2812156,86.6938431 73.6018067,86.6698164 73.8717533,86.9119676 C74.1240333,87.1376298 74.2177844,87.5809453 74.0074333,87.9288609 C74.2587711,88.0219053 74.49362,88.1090609 74.7383622,88.1999853 C74.43214,88.4327142 74.10566,88.2864342 73.8043844,88.1988076 C73.5151222,88.1144787 73.2270378,88.0473453 72.9356556,88.0096564 L75.9316867,92.6015764 L80.2958244,89.7539453 L79.3488911,88.3012742 L77.0995711,89.7687853 L75.6537311,87.5526787 C75.6012022,87.5557409 75.5486733,87.5609231 75.49638,87.5637498 C75.3614067,87.5705809 75.2106511,87.4963809 75.0853356,87.4266564 C74.8886467,87.3175942 74.7023222,87.187332 74.5223578,87.0514164 C74.4592289,87.0035987 74.4286067,86.9124387 74.3829089,86.8410653 C74.4498067,86.807852 74.5159978,86.7491987 74.5840733,86.746372 C74.7192822,86.7409542 74.8566111,86.7614476 74.9920556,86.7795853 C75.0488244,86.7868876 75.1060644,86.7934831 75.1628333,86.8007853 L74.9991222,86.5494476 L76.5910067,85.5106476 L76.3794778,85.1862876 C75.9976422,85.2329276 75.6155711,85.2788609 75.2342067,85.3283276 C75.5792956,85.2244476 75.9234422,85.1177409 76.2687667,85.016452 L75.6207533,84.0231142 L74.0281622,85.0621498 L72.1705711,82.2152253 L74.4189489,80.7472431 L73.9327622,80.0024164 L78.2978422,84.5757276 C78.5133756,84.552172 78.7305578,84.5340342 78.9515089,84.530972 C79.37386,84.5248476 79.7915,84.293532 80.2147933,84.1783453 C80.4691933,84.109092 80.7304244,84.0652787 80.9885933,84.0101587 C81.0027267,84.0447853 81.01686,84.0796476 81.0312289,84.1142742 C80.8357178,84.2261631 80.6524556,84.388932 80.44234,84.4407542 C79.8214156,84.5931587 79.1981356,84.7403809 78.5706156,84.8612209 L81.9972422,88.4515587 L83.8649622,86.6695809 C84.2366689,86.3148342 84.5440689,85.9798742 84.78834,85.6625809" id="Fill-57" fill="#E30613"></path>
            <path d="M63.2890902,18.9681582 C63.4219436,18.8652204 63.5620991,18.793376 63.722748,18.763696 C63.6961302,18.4518204 63.7552547,18.0676293 63.9111924,17.6021716 L65.5680902,12.6628071 C65.6375791,12.4555182 65.7153124,12.2689582 65.8012902,12.1021849 C65.8875036,11.9361182 65.9949169,11.7745271 66.1235302,11.6169404 C66.2514369,11.4598249 66.4050191,11.3535893 66.5828636,11.2979982 C66.7623569,11.2426427 66.9545702,11.2499449 67.1620947,11.3196693 C67.8518013,11.5502782 68.0086813,12.2293849 67.6308502,13.3548693 L65.9751302,18.2942338 C65.5987124,19.4157138 65.0651791,19.8609138 64.3752369,19.6298338 C64.1048191,19.5389093 63.9201436,19.3756693 63.8148502,19.1457671 C63.7773969,19.1754471 63.739708,19.2053627 63.7001347,19.2369271 C63.6829391,19.121976 63.6763436,19.0718027 63.6666858,19.0221004 C63.665508,19.0164471 63.6466636,19.0140916 63.6191036,19.0039627 C63.3015747,19.2411671 62.976508,19.4861449 62.6486147,19.7268827 C62.5306013,19.8135671 62.404108,19.9605538 62.283268,19.9589049 C62.1296858,19.9563138 61.9916502,19.9857582 61.861388,20.0319271 C62.0279258,20.2926871 62.2498191,20.5362516 62.5348413,20.7602649 C62.8730991,21.0271493 63.2886191,21.2426827 63.7797524,21.4071004 C64.2751258,21.5734027 64.7384636,21.651136 65.1702369,21.640536 C65.6020102,21.6301716 65.9850236,21.5449004 66.3185702,21.3863716 C66.6521169,21.2278427 66.9581036,21.0017093 67.2372369,20.7093849 C67.5168413,20.4168249 67.7559302,20.0882249 67.9523836,19.724056 C68.1502502,19.359416 68.325268,18.9486071 68.4793213,18.4913938 L69.747788,14.7079004 C70.6537347,12.007256 69.991588,10.2832249 67.7599347,9.53510044 C65.5341702,8.78862489 63.9684324,9.76570933 63.0624858,12.4658827 L61.7749391,16.3068516 C61.6211213,16.7640649 61.5151213,17.1965449 61.4557613,17.6052338 C61.3964013,18.0141582 61.3905124,18.4157804 61.4399791,18.8115138 C61.4870902,19.1971182 61.594268,19.5457404 61.7582147,19.8585582 C62.0745658,19.7181671 62.3899747,19.5765982 62.7023213,19.4284338 C62.921388,19.3245538 63.0921658,19.1205627 63.2890902,18.9681582" id="Fill-59" fill="#E30613"></path>
            <path d="M84.4799036,34.1076436 C84.0486013,34.1085858 83.6158858,34.1151813 83.1867036,34.0970436 L81.6888058,34.9947458 L82.942668,37.0848302 L89.7912102,32.9800391 L88.3616236,32.9800391 C88.346548,32.9463547 88.3319436,32.9129058 88.3171036,32.8794569 C88.416508,32.8299902 88.5250991,32.725168 88.6139036,32.740008 C89.2640369,32.848128 89.8797791,32.6568569 90.504708,32.5522702 L91.7180547,31.8253458 L92.0000147,32.2957502 C92.4346147,32.1779724 92.8687436,32.0599591 93.3033436,31.9421813 L93.3330236,32.0620791 C92.9076102,32.1713769 92.4821969,32.2806747 92.056548,32.3899724 L92.6096324,33.312408 L94.1720724,32.3756036 L91.1180947,27.2817147 L89.5563613,28.218048 L90.4651347,29.7343191 L83.4877436,33.9163724 C83.8170502,33.9893947 84.1465924,34.0588836 84.4799036,34.1076436" id="Fill-61" fill="#E30613"></path>
            <polygon id="Fill-63" fill="#E30613" points="99.1351809 49.3453791 87.0789764 49.6212147 87.1267942 51.7167169 93.814452 51.5638413 87.1878031 54.3542324 87.2257276 56.0412813 99.2828742 55.7652102 99.2364698 53.7436724 92.9297053 53.8883036 99.1761676 51.0995613"></polygon>
            <path d="M69.4388333,54.8974942 C69.3323622,55.3360987 69.1740689,55.8090942 69.0193089,56.2700764 L68.2346733,58.4647476 L70.6472333,58.4647476 L69.85082,56.2818542 C69.6847533,55.7864809 69.5580244,55.3360987 69.4388333,54.8974942" id="Fill-65" fill="#E30613"></path>
            <path d="M94.8192613,44.4860093 L89.7578791,45.7207916 C88.6081324,46.0013382 87.9481058,45.7874538 87.7756791,45.0810227 C87.6039591,44.3781249 88.0929724,43.886756 89.2427191,43.6066804 L94.3036302,42.3716627 C94.5153947,42.3198404 94.7153813,42.2863916 94.902648,42.2708449 C95.089208,42.2548271 95.2835413,42.2590671 95.4849413,42.2833293 C95.6856347,42.3078271 95.8580613,42.3808493 95.9993947,42.5026316 C96.1419058,42.6241782 96.2394258,42.7909516 96.2910124,43.0036582 C96.462968,43.7105604 95.9725413,44.204756 94.8192613,44.4860093 M91.3120747,46.7235516 C91.5257236,46.7836182 91.7389013,46.8439204 91.9970702,46.9167071 C91.599688,47.335996 91.5118258,46.8486316 91.3120747,46.7235516 M93.1340969,40.1480182 L89.1981991,41.1083782 C88.7294436,41.2226227 88.3070924,41.363956 87.9297324,41.5316716 C87.5523724,41.6993871 87.2096391,41.9095027 86.9015324,42.1620182 C86.5927191,42.4138271 86.3498613,42.6972004 86.1717813,43.0116671 C85.9927591,43.3261338 85.882048,43.698076 85.8368213,44.1274938 C85.7923013,44.5559693 85.831168,45.0223693 85.954128,45.5248093 C86.0777947,46.0324316 86.2591724,46.4663249 86.498968,46.8260182 C86.7382924,47.1859471 87.0138924,47.4641382 87.3262391,47.6610627 C87.6385858,47.8586938 87.9928613,47.9972004 88.3890658,48.0777604 C88.7855058,48.1578493 89.1904258,48.1844671 89.6042969,48.1569071 C90.0176969,48.1293471 90.4593636,48.0586804 90.9278836,47.9442004 L94.8048924,46.9984449 C97.5724347,46.3235782 98.6767191,44.8433471 98.1191591,42.557516 C97.5623058,40.276396 95.901168,39.4733871 93.1340969,40.1480182" id="Fill-67" fill="#E30613"></path>
            <polygon id="Fill-69" fill="#E30613" points="89.8413129 70.6872071 89.0093307 67.4464338 86.6662596 69.8349671 83.3272596 69.624616 84.8748596 72.5912027 83.642904 75.7017138 86.9420951 75.1467449 89.5202507 77.2794649 90.0118551 73.9701449 92.8368729 72.1775671"></polygon>
            <path d="M82.2584498,28.9580929 L81.4408364,28.019404 L85.2304542,25.5597329 L82.2584498,28.9580929 Z M78.0950053,27.4399373 C78.1831031,27.497884 78.2714364,27.5560662 78.3581209,27.6161329 C78.3456364,27.6434573 78.3326809,27.6707818 78.3197253,27.6981062 C78.1753298,27.6559418 78.0368231,27.6043551 77.9030276,27.5459373 L76.3603742,28.396764 L77.9480187,30.2190218 L79.1201431,29.5213062 C78.9361742,29.2541862 78.7420764,28.9938973 78.5336098,28.7432662 C78.5098187,28.7142929 78.5046364,28.6690662 78.4909742,28.6316129 C78.5223031,28.6101773 78.5533964,28.5889773 78.5847253,28.5677773 C78.8070898,28.8596307 79.0294542,29.1510129 79.2515831,29.4428662 L80.1994587,28.8787107 L81.2337831,30.0647329 L80.4083964,31.1190796 C80.578232,31.3909107 80.7419431,31.6676884 80.915312,31.9538884 C80.5801164,31.846004 80.3290142,31.6846484 80.1996942,31.3864351 L79.615752,32.132204 L81.1956231,33.9445684 L81.3357787,33.7570662 C81.1986853,33.7038307 81.0627698,33.6432929 80.9285031,33.5728618 C81.1115298,33.5617907 81.2922009,33.5650884 81.4721653,33.5745107 L88.5741653,24.0660751 L87.1572987,22.4409773 L78.0950053,27.4399373 Z" id="Fill-71" fill="#E30613"></path>
            <path d="M45.6688987,85.486032 L43.2283076,84.837312 L41.4955609,91.3574898 C41.6651609,91.3294587 41.8335831,91.3739787 41.9777431,91.6133031 C41.7890631,91.5659564 41.6192276,91.5230853 41.4623476,91.483512 L40.0207476,96.9076498 L42.4608676,97.5556631 L45.6688987,85.486032 Z" id="Fill-73" fill="#E30613"></path>
            <path d="M75.5437267,24.9689596 C75.7194511,25.1950929 75.8965889,25.420284 76.0826778,25.6377018 C76.4082156,26.0183596 76.7306911,26.410324 77.1073444,26.7363329 C77.1318422,26.7577684 77.1586956,26.7766129 77.1841356,26.7973418 L83.8227978,19.1563907 L81.9828733,17.5579107 L75.5437267,24.9689596 Z" id="Fill-75" fill="#E30613"></path>
            <polygon id="Fill-77" fill="#E30613" points="17.1735782 77.2346858 19.5164138 74.8461524 22.8556493 75.0567391 21.3082849 72.0901524 22.5400049 68.9794058 19.2405782 69.5348458 16.6628938 67.4018902 16.1712893 70.7114458 13.3462716 72.503788 16.3418316 73.9939124"></polygon>
            <path d="M81.2389418,53.1647711 C81.0121018,52.9659622 80.7854973,52.7671533 80.5588929,52.5683444 C80.5862173,53.7772156 80.5351018,54.9882067 80.4038973,56.1940156 C80.5482929,56.2460733 80.6969284,56.3068467 80.8217729,56.4013044 C80.8971507,56.45878 80.9673462,56.5240289 81.0349507,56.5921044 C81.1722796,55.4529578 81.239884,54.3083933 81.2389418,53.1647711" id="Fill-79" fill="#E30613"></path>
            <path d="M7.96940978,32.4626649 C7.84456533,32.4961138 7.71948533,32.5293271 7.59464089,32.5625404 C5.86778311,36.3620516 4.64925422,40.3207982 3.93292978,44.3419671 C4.24833867,44.3367849 4.574112,44.3728249 4.89800089,44.3805982 C5.72786311,39.7922116 7.22340533,35.2881538 9.39781867,31.0187093 C9.27980533,31.0019849 9.15896533,30.9654738 9.04048089,30.947336 C8.78772978,30.909176 8.80633867,30.7164916 8.79008533,30.531816 C8.78325422,30.4524338 8.73543644,30.3765849 8.69845422,30.2917849 C8.33734756,30.9895004 7.99414311,31.693576 7.66884089,32.4033049 C7.76777422,32.4190871 7.86764978,32.4381671 7.96940978,32.4626649" id="Fill-83" fill="#E30613"></path>
            <path d="M72.6597964,14.924376 C72.6315298,14.8885716 72.6030276,14.8525316 72.5745253,14.8164916 C72.7528409,14.6735093 72.9309209,14.5302916 73.1090009,14.3870738 C73.1450409,14.4351271 73.1803742,14.483416 73.2159431,14.5317049 C73.0305609,14.6624382 72.8451787,14.7934071 72.6597964,14.924376 M78.0752187,14.695416 C77.8168142,14.385896 77.4773787,14.1044071 77.0564409,13.8502427 C75.0608142,12.6470249 73.3283031,13.2646516 71.8572587,15.7026516 L69.7952053,19.1203271 C69.5443387,19.5367893 69.3429387,19.9372338 69.1931253,20.3209538 C69.0421342,20.7037316 68.943672,21.0971093 68.899152,21.5001449 C68.8539253,21.9031804 68.877952,22.2803049 68.971232,22.6310471 C69.064512,22.9815538 69.2454187,23.3257004 69.5144231,23.6623093 C69.783192,23.9986827 70.141472,24.3023138 70.588792,24.5722604 C71.0240987,24.8351404 71.4499831,25.0021493 71.8662098,25.0735227 C72.2819653,25.1441893 72.6612098,25.1357093 73.0032364,25.0480827 C73.3459698,24.9599849 73.6799876,24.8007493 74.0074098,24.5701404 C74.3336542,24.3397671 74.6264498,24.0754738 74.8841476,23.777496 C75.1420809,23.4797538 75.3936542,23.1358427 75.6388676,22.747176 L76.1646276,21.8756204 L74.1230676,20.6436649 L73.4835342,21.7050782 C73.3422009,21.9378071 73.2079342,22.1399138 73.0795564,22.3099849 C72.9507076,22.4798204 72.8025431,22.6435316 72.6352987,22.7999404 C72.4678187,22.9568204 72.291152,23.0501004 72.1064764,23.0797804 C71.9220364,23.1092249 71.739952,23.0696516 71.5602231,22.9610604 C70.9562587,22.5968916 70.9595564,21.9081271 71.5715298,20.8952382 L74.2587476,16.4404116 C74.8723698,15.4237538 75.4808098,15.0970382 76.0840676,15.4616782 C76.2374142,15.554016 76.3452987,15.6713227 76.4084276,15.8133627 C76.4713209,15.9554027 76.4967609,16.0976782 76.4868676,16.2399538 C76.4769742,16.3824649 76.4352809,16.5506516 76.3632009,16.7440427 C76.2904142,16.9371982 76.2169209,17.1042071 76.1434276,17.2445982 C76.0685209,17.3847538 75.9752409,17.5491716 75.8621742,17.7359671 L75.2883609,18.6878471 L77.3402853,19.9261627 L77.8766453,19.0376471 C78.123272,18.6284871 78.318312,18.2348738 78.4596453,17.8565716 C78.602392,17.4785049 78.689312,17.1004382 78.721112,16.7237849 C78.752912,16.346896 78.7182853,15.9921493 78.6165253,15.6597804 C78.5147653,15.327176 78.3338587,15.0061138 78.0752187,14.695416" id="Fill-85" fill="#E30613"></path>
            <path d="M58.609944,56.3002511 C58.7496284,55.9115844 59.7592196,55.51326 60.2524729,55.6560067 C59.6430907,55.6814467 59.2730329,56.3143844 58.609944,56.3002511 Z M57.7134196,63.9016289 C57.9171751,64.0554467 58.1143351,64.2050244 58.3911129,64.4146689 C57.9355484,64.4316289 57.8012818,64.3093756 57.7134196,63.9016289 Z M55.6033129,61.6572556 L54.5732284,61.6572556 L54.5732284,55.0935 L52.1743307,55.0935 L52.1743307,54.2838956 L58.0137529,54.2838956 L58.0137529,55.0935 L55.6033129,55.0935 L55.6033129,61.6572556 Z M51.3152596,63.5296867 C51.8935484,63.5047178 52.3886862,63.1287711 52.9794596,63.3855267 C51.8381929,63.8571089 51.4985218,63.8995089 51.3152596,63.5296867 Z M50.2114462,63.6809133 C50.1322996,63.6432244 50.1377173,63.4269844 50.104504,63.2927178 C50.1570329,63.2628022 50.2095618,63.2326511 50.2620907,63.2025 C50.5744373,63.50142 50.886784,63.8001044 51.2526018,64.15014 C50.7037573,64.2999533 50.5292107,63.8319044 50.2114462,63.6809133 Z M61.9840418,44.7634467 L49.6199662,53.3534511 L49.6199662,70.7489933 L61.9840418,62.1229489 L61.9840418,44.7634467 Z" id="Fill-87" fill="#E30613"></path>
            <g id="Group-91" transform="translate(3.768889, 0.122489)">
                <mask id="mask-3" fill="white">
                    <use xlink:href="#path-2"></use>
                </mask>
                <g id="Clip-90"></g>
                <path d="M88.1638982,86.4964476 C88.4962671,86.7640387 88.8335827,87.0353987 89.1706627,87.3067587 C88.7304093,87.1581231 88.3405649,86.9496564 88.1638982,86.4964476 Z M69.6817382,101.377199 C69.216516,101.288394 68.7517649,101.19959 68.2512093,101.103954 C68.3734627,100.81375 68.5074938,100.783363 68.6957027,100.878056 C68.858236,100.959559 69.023596,101.037292 69.1929604,101.103954 C69.3592627,101.169203 69.5319249,101.217728 69.7017604,101.273554 L69.6817382,101.377199 Z M58.1873338,103.208879 C58.251876,103.134443 58.3208938,102.991696 58.3802538,102.995701 C58.9627827,103.03339 59.5438982,103.09487 60.1254849,103.151639 C60.282836,103.16695 60.4394804,103.189563 60.596596,103.208879 L58.1873338,103.208879 Z M33.1482493,102.050888 C32.9444938,101.898248 32.7407382,101.745372 32.4576004,101.533372 C32.7539293,101.612754 32.9522671,101.647145 33.1329382,101.724172 C33.1972449,101.751496 33.2184449,101.881052 33.259196,101.963732 C33.2224493,101.992705 33.1854671,102.021914 33.1482493,102.050888 Z M100.478272,57.8863409 C100.746805,57.9428742 101.011334,58.0187231 101.277276,58.0877409 C101.264556,58.1515764 101.252072,58.2149409 101.239587,58.2787764 C100.970818,58.2436787 100.700872,58.2168253 100.4354,58.1659453 C100.38664,58.1562876 100.336938,58.0512298 100.327987,57.9848031 C100.323983,57.9574787 100.433987,57.8769187 100.478272,57.8863409 Z M91.4166849,84.3119053 C91.2548582,84.1668031 91.0918538,84.0233498 90.9354449,83.8728298 C90.8518227,83.7925053 90.781156,83.6982831 90.6742138,83.5750876 C91.0765427,83.4770964 91.3250538,83.6693098 91.5523649,83.8700031 C91.6896938,83.9913142 91.8324404,84.1024964 91.9777782,84.2084964 C104.789409,66.6419409 105.289729,43.4208742 94.4259071,25.5511587 C94.3526493,25.529252 94.274916,25.4962742 94.1903516,25.448692 C94.2447649,25.4385631 94.293996,25.429612 94.3441693,25.4201898 C91.4407116,20.6758653 87.7361293,16.3107853 83.2440849,12.5338876 C66.5036227,-1.54197022 43.5993782,-3.47117022 25.2432404,5.81631422 C25.5935116,6.02878533 25.9444893,6.37387422 25.9810004,6.61814533 C25.6736004,6.36303867 25.3888138,6.12677644 25.0997871,5.88721644 C18.9720449,9.01115422 13.3552227,13.3882476 8.65000044,18.9843409 C8.436116,19.2387409 8.22812044,19.4962031 8.01988933,19.7534298 C8.42857822,19.7930031 8.771076,19.8259809 9.11051156,19.8587231 C8.35791156,20.019372 8.22105378,20.0262031 7.98055156,19.8014831 C4.67123156,23.8975587 2.07211156,28.3436698 0.168587111,32.9890609 C0.230773778,32.9749276 0.293196,32.9607942 0.355618222,32.9466609 C1.16098267,32.7633987 1.96564044,32.5749542 2.77312489,32.3992298 C4.66345822,28.1587587 7.16976933,24.1081453 10.3068982,20.3771809 C28.3549293,-1.08758356 60.3862449,-3.85724578 81.8510093,14.1907853 C86.0646271,17.7335409 89.5541471,21.8166609 92.3108538,26.2514653 C92.5252093,26.0149676 92.7393293,25.7784698 92.9534493,25.5422076 C92.9807738,25.5523364 93.0078627,25.5624653 93.0351871,25.5728298 C92.9982049,25.6830698 92.992316,25.821812 92.9200004,25.8988387 C92.7541693,26.0755053 92.5864538,26.2505231 92.419916,26.4262476 C103.020858,43.6366431 102.572832,66.1036964 90.1446849,83.0472076 L90.6485382,83.2427187 C90.6445338,83.2643898 90.6405293,83.286532 90.6362893,83.3086742 C90.5121516,83.2862964 90.3818893,83.2808787 90.2655249,83.2375364 C90.1993338,83.2130387 90.1359693,83.1793542 90.0737827,83.1435498 C89.4262404,84.022172 88.7499604,84.8876031 88.037876,85.7348964 C69.9898449,107.199661 37.9582938,109.969323 16.4935293,91.921292 C10.7476227,87.0900476 6.34273378,81.2558076 3.31678711,74.8910964 C3.27933378,74.8991053 3.244236,74.9089987 3.20442711,74.9151231 C2.91398711,74.9601142 2.66194267,75.2180476 2.37762711,75.3501942 C2.03936933,75.5077809 1.69380933,75.6507631 1.34707156,75.7895053 C1.81252933,76.7708298 2.31120044,77.7391987 2.83978711,78.6948476 C3.23010267,78.550452 3.62300933,78.4046431 4.015916,78.2590698 C4.02816489,78.2861587 4.04064933,78.3132476 4.05313378,78.3403364 C4.02392489,78.3572964 3.99707156,78.3827364 3.96550711,78.3900387 C3.58484933,78.4786076 3.26873378,78.6847187 2.95096933,78.8945987 C5.99128489,84.3352253 10.0470804,89.3292387 15.1004538,93.5781898 C37.4803516,112.395545 70.8771827,109.507399 89.6945382,87.127972 C90.3929604,86.2971676 91.0576982,85.4498742 91.6962893,84.5900964 C91.603716,84.4961098 91.5127916,84.3978831 91.4166849,84.3119053 Z" id="Fill-89" fill="#E30613" mask="url(#mask-3)"></path>
            </g>
            <path d="M1.864752,41.8573978 C2.17804089,41.9212333 2.50357867,41.9874244 2.80838756,42.04914 C2.38956978,42.2086111 1.98959644,42.1256956 1.864752,41.8573978 M3.76144533,33.5455844 C0.463903111,41.8020422 -0.647212444,50.6674111 0.356254222,59.3002867 C0.562836444,59.2852111 0.767063111,59.2706067 0.965165333,59.2564733 C0.988485333,59.34622 1.01604533,59.4508067 1.05302756,59.59214 C0.832783111,59.6081578 0.616072,59.6241756 0.397712,59.6401933 C1.07634756,65.1689178 2.62276978,70.5961178 5.01789867,75.7013133 C5.273712,75.5771756 5.52952533,75.4537444 5.78745867,75.3345533 C6.18484089,75.1512911 6.58340089,74.9710911 6.98219644,74.7906556 C0.827129778,61.6798689 0.509600889,46.3501489 6.382472,32.8888556 C6.05104533,32.9778956 5.71961867,33.0662289 5.38724978,33.1512644 C4.84712089,33.2893 4.30510756,33.4216822 3.76144533,33.5455844" id="Fill-92" fill="#E30613"></path>
            <path d="M58.5669316,7.45088133 C57.5467404,7.33192578 56.6959138,7.519428 56.0139804,8.013388 C55.3322827,8.50687689 54.9341938,9.23921911 54.8213627,10.2101791 C54.782496,10.542548 54.7843804,10.8619613 54.8277227,11.167948 C54.8701227,11.4744058 54.9334871,11.7394058 55.0185227,11.9622413 C55.1016738,12.185548 55.2274604,12.4213391 55.3942338,12.6698502 C55.5610071,12.9185969 55.7065804,13.1178769 55.8337804,13.2672191 C55.9595671,13.4167969 56.1319938,13.6050058 56.3475271,13.8325524 L57.0252204,14.5582991 C57.8732204,15.4974591 58.2477538,16.3864458 58.1499982,17.2240813 C58.0795671,17.8360547 57.8039671,18.1144813 57.3253182,18.0586547 C57.1658471,18.0398102 57.0322871,17.9762102 56.9262871,17.867148 C56.8202871,17.7583213 56.7425538,17.6299436 56.6945004,17.4829569 C56.6464471,17.3357347 56.6167671,17.150588 56.6040471,16.9265747 C56.5927404,16.7025613 56.5927404,16.4969213 56.6054604,16.3096547 C56.618416,16.122388 56.6384382,15.9068547 56.6669404,15.6630547 L55.6005804,15.7422013 C55.624136,15.7782413 55.6469849,15.814988 55.6695982,15.8526769 C55.6377982,15.8147524 55.6048204,15.7801258 55.5720782,15.7443213 L54.1578027,15.8493791 C54.123176,16.3400413 54.1521493,16.8059702 54.2444871,17.2483436 C54.337296,17.6907169 54.4948827,18.102468 54.7172471,18.4831258 C54.9405538,18.8640191 55.2557271,19.1813124 55.6613538,19.4357124 C56.0686293,19.6898769 56.5482204,19.8491124 57.1029538,19.9134191 C57.9580204,20.0135302 58.7169804,19.8307391 59.3774782,19.3662236 C60.0382116,18.9014724 60.417456,18.2503969 60.5152116,17.4120547 C60.5665627,16.9644991 60.5632649,16.5414413 60.5046116,16.143588 C60.4452516,15.7457347 60.330536,15.367668 60.1611716,15.0112724 C59.9908649,14.6544058 59.8035982,14.3305169 59.6000782,14.0393702 C59.3953804,13.7482236 59.1402738,13.432108 58.8340516,13.090788 C58.7506649,12.9956236 58.6088604,12.8455747 58.4072249,12.6399347 C58.2067671,12.4345302 58.0468249,12.261868 57.9290471,12.1224191 C57.8103271,11.9827347 57.6828916,11.8096013 57.5474471,11.6027836 C57.4124738,11.3962013 57.3175449,11.1797258 57.2654871,10.9528858 C57.2131938,10.726988 57.2018871,10.489548 57.2308604,10.2412724 C57.2640738,9.95719244 57.3587671,9.71951689 57.5170604,9.52612578 C57.6739404,9.33320578 57.8849982,9.25241022 58.1514116,9.28350356 C58.3021671,9.30093467 58.4255982,9.35911689 58.5219404,9.45805022 C58.6178116,9.55651244 58.6828249,9.68206356 58.7176871,9.83470356 C58.7506649,9.98687244 58.7704516,10.1373924 58.7763404,10.2862636 C58.7810516,10.4351347 58.7746916,10.589188 58.7565538,10.7488947 C58.7480738,10.8153213 58.7351182,10.9005924 58.7162738,11.0040013 C58.6969582,11.1071747 58.6858871,11.1834947 58.6799982,11.2322547 L61.2204649,11.1776058 C61.2296516,11.102228 61.2374249,11.0358013 61.2435493,10.9778547 L61.2607449,10.8921124 C61.3594427,10.0412858 61.1476782,9.27879244 60.6233316,8.606988 C60.0989849,7.93447689 59.4135182,7.54934356 58.5669316,7.45088133" id="Fill-94" fill="#E30613"></path>
            <path d="M12.6766107,34.3619493 L11.1233573,33.7365493 L9.24527289,38.4010204 L17.8077173,41.8495538 C17.905944,41.8328293 18.0051129,41.818696 18.1049884,41.8073893 C18.1226551,41.8365982 18.1403218,41.8655716 18.1579884,41.8947804 C18.1367884,41.9164516 18.1170018,41.941656 18.0972151,41.9661538 L20.4254462,42.9039004 L22.3042373,38.2394293 L20.750984,37.6142649 L19.7830862,40.0181093 L16.3425618,38.6321004 L17.0280284,36.9302116 L15.4373218,36.2892649 L14.7520907,37.9913893 L11.7087129,36.7655582 L12.6766107,34.3619493 Z" id="Fill-96" fill="#E30613"></path>
            <path d="M17.8767822,28.2126773 C18.0298933,28.423264 18.232,28.614064 18.3266933,28.8482062 C18.5280933,29.3459351 18.5509422,29.3977573 19.1610311,29.5918551 C18.9002711,29.8186951 18.6772,29.7211751 18.46096,29.5562862 C18.0341333,29.2302773 17.79952,28.806984 17.8767822,28.2126773 Z M14.4235378,29.589264 C14.7481333,29.5082329 15.0414,29.434504 15.33608,29.3610107 C15.4416089,29.7240018 15.3787156,29.7421396 14.4235378,29.589264 Z M13.6391378,29.1193307 L15.1200756,30.1800373 L16.1487467,28.7429129 L24.4673911,34.7015262 L25.8861422,32.7202684 L21.20424,29.3659573 C21.1349867,29.3638373 21.0704444,29.3600684 21.0188578,29.3537084 C20.6506844,29.3087173 20.2712044,29.3548862 19.8966711,29.3659573 C19.62696,29.3737307 19.3954089,29.3329796 19.3527733,28.9820018 C19.8818311,28.8100462 20.3640133,28.8979084 20.8388933,29.1042551 L17.56844,26.761184 L18.5782667,25.3516196 L17.0978,24.2909129 L13.6391378,29.1193307 Z" id="Fill-98" fill="#E30613"></path>
            <path d="M83.9422951,39.0507533 L84.4598107,40.2645711 C84.7756907,40.2290022 85.0524684,40.1979089 85.326184,40.1670511 C85.0746107,40.2589178 84.8390551,40.5338111 84.5380151,40.4480689 L84.8984151,41.2932422 L95.9860151,36.5679978 L95.0296596,34.3255089 L83.9422951,39.0507533 Z" id="Fill-100" fill="#E30613"></path>
            <path d="M73.9316551,46.8832111 C73.7613484,46.7955844 73.5910418,46.7079578 73.4207351,46.6203311 C73.4365173,46.5845267 73.4527707,46.5489578 73.4685529,46.5131533 C73.691624,46.4815889 73.8864284,46.5199844 73.9952551,46.7666111 C73.9740551,46.8054778 73.9528551,46.8443444 73.9316551,46.8832111 Z M71.7164907,61.6153267 L70.8611884,59.2298556 L68.020624,59.2298556 L67.1891129,61.6153267 L66.1194551,61.6153267 L68.841064,54.0309089 L70.0892729,54.0309089 L72.822424,61.6153267 L71.7164907,61.6153267 Z M75.3529973,47.6216778 L75.3529973,44.7636822 L73.2805796,46.2033978 C73.3620818,46.2413222 73.4440551,46.2794822 73.5253218,46.3176422 C73.3552507,46.3642822 73.1868284,46.3831267 73.0257084,46.3803 L66.2834018,51.0645578 C66.8718196,51.0546644 67.4600018,51.0431222 68.0484196,51.0346422 C68.2064773,51.0322867 68.3748996,51.0494822 68.5218862,51.1031889 C68.9571929,51.26266 69.3913218,51.2063622 69.8402907,51.1875178 C70.8081884,51.1472378 71.7812684,51.0537222 72.7475173,51.2777356 C73.0261796,51.3425133 73.3328729,51.2876289 73.6266107,51.2876289 L73.6527573,51.3191933 C73.3764507,51.3759622 73.102264,51.46194 72.8233662,51.4845533 C71.9567573,51.5547489 71.088264,51.6004467 70.2204773,51.6565089 C70.0605351,51.6668733 69.890464,51.6489711 69.7432418,51.6984378 C69.2167751,51.8746333 68.7600329,51.67394 68.2908062,51.48526 C68.154184,51.4303756 67.9843484,51.4270778 67.834064,51.4426244 C67.0555529,51.5245978 66.2768062,51.6004467 65.4980596,51.61034 L62.9889218,53.3536867 L62.9889218,70.7492289 L75.3529973,62.1229489 L75.3529973,58.5095267 C75.1379351,58.4482822 74.9240507,58.3766733 74.6983884,58.3314467 C74.8592729,58.2202644 75.0922373,58.1790422 75.3529973,58.1941178 L75.3529973,48.1813578 C74.9949529,47.8365044 74.6529262,47.4730422 74.3320996,47.0933267 C74.147424,46.8744956 74.0915973,46.5913578 74.1589662,46.3004467 C74.4380996,46.8596556 74.8484373,47.2754111 75.3529973,47.6216778 Z" id="Fill-102" fill="#E30613"></path>
            <path d="M46.2984916,53.8125489 C46.4009582,54.10346 46.5034249,54.3946067 46.6242649,54.7366333 C46.3288782,54.5399444 46.2900116,54.4348867 46.2984916,53.8125489 Z M44.6627938,55.0935 L42.2516471,55.0935 L42.2516471,61.6572556 L41.2222693,61.6572556 L41.2222693,55.0935 L38.8233716,55.0935 L38.8233716,54.2838956 L44.6627938,54.2838956 L44.6627938,55.0935 Z M48.5065893,44.7634467 L36.1427493,53.3534511 L36.1427493,70.7489933 L46.8089404,63.3075578 C46.7213138,63.2425444 46.6301538,63.1751756 46.5340471,63.10498 C46.8299049,63.0175889 47.0727627,62.9455089 47.2934782,62.8804956 C47.3090249,62.9009889 47.3226871,62.91842 47.3379982,62.9384422 L48.5065893,62.1229489 L48.5065893,44.7634467 Z" id="Fill-104" fill="#E30613"></path>
        </g>
    </g>
</svg>